<svg width="528" height="528" viewBox="0 0 528 528" fill="none" xmlns="http://www.w3.org/2000/svg">
<circle cx="264" cy="264" r="214" fill="url(#paint0_linear_46_11228)" fill-opacity="0.06"/>
<circle cx="264" cy="264" r="214.5" stroke="url(#paint1_linear_46_11228)" stroke-opacity="0.15"/>
<g filter="url(#filter0_d_46_11228)">
<circle cx="264" cy="264" r="162.248" fill="url(#paint2_linear_46_11228)" fill-opacity="0.05" shape-rendering="crispEdges"/>
<circle cx="264" cy="264" r="162.748" stroke="url(#paint3_linear_46_11228)" stroke-opacity="0.15" shape-rendering="crispEdges"/>
</g>
<g filter="url(#filter1_d_46_11228)">
<circle cx="264.001" cy="264" r="110.497" fill="url(#paint4_linear_46_11228)" fill-opacity="0.04" shape-rendering="crispEdges"/>
<circle cx="264.001" cy="264" r="110.997" stroke="url(#paint5_linear_46_11228)" stroke-opacity="0.15" shape-rendering="crispEdges"/>
</g>
<g filter="url(#filter2_d_46_11228)">
<circle cx="264" cy="264" r="61.5425" fill="url(#paint6_linear_46_11228)" fill-opacity="0.05" shape-rendering="crispEdges"/>
<circle cx="264" cy="264" r="62.0425" stroke="url(#paint7_linear_46_11228)" stroke-opacity="0.15" shape-rendering="crispEdges"/>
</g>
<path fill-rule="evenodd" clip-rule="evenodd" d="M276.708 247.459H251.41C242.275 247.459 234.869 254.865 234.869 264C234.869 273.135 242.275 280.541 251.41 280.541H276.708C285.844 280.541 293.25 273.135 293.25 264C293.25 254.865 285.844 247.459 276.708 247.459ZM251.41 241.621C239.051 241.621 229.031 251.64 229.031 264C229.031 276.36 239.051 286.379 251.41 286.379H276.708C289.068 286.379 299.088 276.36 299.088 264C299.088 251.64 289.068 241.621 276.708 241.621H251.41Z" fill="url(#paint8_linear_46_11228)"/>
<path d="M259.194 264C259.194 266.149 257.452 267.892 255.302 267.892C253.153 267.892 251.41 266.149 251.41 264C251.41 261.85 253.153 260.108 255.302 260.108C257.452 260.108 259.194 261.85 259.194 264Z" fill="url(#paint9_linear_46_11228)"/>
<path d="M276.717 264C276.717 266.149 274.974 267.892 272.825 267.892C270.675 267.892 268.933 266.149 268.933 264C268.933 261.85 270.675 260.108 272.825 260.108C274.974 260.108 276.717 261.85 276.717 264Z" fill="url(#paint10_linear_46_11228)"/>
<defs>
<filter id="filter0_d_46_11228" x="0.751953" y="0.751587" width="526.497" height="526.497" filterUnits="userSpaceOnUse" color-interpolation-filters="sRGB">
<feFlood flood-opacity="0" result="BackgroundImageFix"/>
<feColorMatrix in="SourceAlpha" type="matrix" values="0 0 0 0 0 0 0 0 0 0 0 0 0 0 0 0 0 0 127 0" result="hardAlpha"/>
<feOffset/>
<feGaussianBlur stdDeviation="50"/>
<feComposite in2="hardAlpha" operator="out"/>
<feColorMatrix type="matrix" values="0 0 0 0 0 0 0 0 0 0 0 0 0 0 0 0 0 0 0.1 0"/>
<feBlend mode="normal" in2="BackgroundImageFix" result="effect1_dropShadow_46_11228"/>
<feBlend mode="normal" in="SourceGraphic" in2="effect1_dropShadow_46_11228" result="shape"/>
</filter>
<filter id="filter1_d_46_11228" x="52.5039" y="52.5033" width="422.993" height="422.994" filterUnits="userSpaceOnUse" color-interpolation-filters="sRGB">
<feFlood flood-opacity="0" result="BackgroundImageFix"/>
<feColorMatrix in="SourceAlpha" type="matrix" values="0 0 0 0 0 0 0 0 0 0 0 0 0 0 0 0 0 0 127 0" result="hardAlpha"/>
<feOffset/>
<feGaussianBlur stdDeviation="50"/>
<feComposite in2="hardAlpha" operator="out"/>
<feColorMatrix type="matrix" values="0 0 0 0 0 0 0 0 0 0 0 0 0 0 0 0 0 0 0.08 0"/>
<feBlend mode="normal" in2="BackgroundImageFix" result="effect1_dropShadow_46_11228"/>
<feBlend mode="normal" in="SourceGraphic" in2="effect1_dropShadow_46_11228" result="shape"/>
</filter>
<filter id="filter2_d_46_11228" x="151.457" y="151.458" width="225.085" height="225.085" filterUnits="userSpaceOnUse" color-interpolation-filters="sRGB">
<feFlood flood-opacity="0" result="BackgroundImageFix"/>
<feColorMatrix in="SourceAlpha" type="matrix" values="0 0 0 0 0 0 0 0 0 0 0 0 0 0 0 0 0 0 127 0" result="hardAlpha"/>
<feOffset/>
<feGaussianBlur stdDeviation="25"/>
<feComposite in2="hardAlpha" operator="out"/>
<feColorMatrix type="matrix" values="0 0 0 0 0 0 0 0 0 0 0 0 0 0 0 0 0 0 0.12 0"/>
<feBlend mode="normal" in2="BackgroundImageFix" result="effect1_dropShadow_46_11228"/>
<feBlend mode="normal" in="SourceGraphic" in2="effect1_dropShadow_46_11228" result="shape"/>
</filter>
<linearGradient id="paint0_linear_46_11228" x1="264" y1="50" x2="264" y2="478" gradientUnits="userSpaceOnUse">
<stop stop-color="white" stop-opacity="0.48"/>
<stop offset="0.5" stop-color="white"/>
<stop offset="1" stop-color="white" stop-opacity="0"/>
</linearGradient>
<linearGradient id="paint1_linear_46_11228" x1="264" y1="50" x2="264" y2="478" gradientUnits="userSpaceOnUse">
<stop stop-color="white" stop-opacity="0.4"/>
<stop offset="0.505208" stop-color="white"/>
<stop offset="1" stop-color="white" stop-opacity="0"/>
</linearGradient>
<linearGradient id="paint2_linear_46_11228" x1="264" y1="101.752" x2="264" y2="426.248" gradientUnits="userSpaceOnUse">
<stop stop-color="white" stop-opacity="0.48"/>
<stop offset="0.5" stop-color="white"/>
<stop offset="1" stop-color="white" stop-opacity="0"/>
</linearGradient>
<linearGradient id="paint3_linear_46_11228" x1="264" y1="101.752" x2="264" y2="426.248" gradientUnits="userSpaceOnUse">
<stop stop-color="white" stop-opacity="0.4"/>
<stop offset="0.505208" stop-color="white"/>
<stop offset="1" stop-color="white" stop-opacity="0"/>
</linearGradient>
<linearGradient id="paint4_linear_46_11228" x1="264.001" y1="153.503" x2="264.001" y2="374.497" gradientUnits="userSpaceOnUse">
<stop stop-color="white" stop-opacity="0.48"/>
<stop offset="0.5" stop-color="white"/>
<stop offset="1" stop-color="white" stop-opacity="0"/>
</linearGradient>
<linearGradient id="paint5_linear_46_11228" x1="264.001" y1="153.503" x2="264.001" y2="374.497" gradientUnits="userSpaceOnUse">
<stop stop-color="white" stop-opacity="0.4"/>
<stop offset="0.505208" stop-color="white"/>
<stop offset="1" stop-color="white" stop-opacity="0"/>
</linearGradient>
<linearGradient id="paint6_linear_46_11228" x1="264" y1="202.458" x2="264" y2="325.542" gradientUnits="userSpaceOnUse">
<stop stop-color="white" stop-opacity="0.48"/>
<stop offset="0.5" stop-color="white"/>
<stop offset="1" stop-color="white" stop-opacity="0"/>
</linearGradient>
<linearGradient id="paint7_linear_46_11228" x1="264" y1="202.458" x2="264" y2="325.542" gradientUnits="userSpaceOnUse">
<stop stop-color="white" stop-opacity="0.4"/>
<stop offset="0.505208" stop-color="white"/>
<stop offset="1" stop-color="white" stop-opacity="0"/>
</linearGradient>
<linearGradient id="paint8_linear_46_11228" x1="296.169" y1="245.026" x2="229.031" y2="281.028" gradientUnits="userSpaceOnUse">
<stop stop-color="#701EFC"/>
<stop offset="1" stop-color="#CBB3F3"/>
</linearGradient>
<linearGradient id="paint9_linear_46_11228" x1="259.722" y1="260.803" x2="250.419" y2="263.372" gradientUnits="userSpaceOnUse">
<stop stop-color="#ECE0FF"/>
<stop offset="1" stop-color="#7C3AED"/>
</linearGradient>
<linearGradient id="paint10_linear_46_11228" x1="276.351" y1="266.557" x2="271.39" y2="259.528" gradientUnits="userSpaceOnUse">
<stop stop-color="#7C3AED"/>
<stop offset="1" stop-color="#ECE0FF"/>
</linearGradient>
</defs>
</svg>
