<svg width="86" height="37" viewBox="0 0 86 37" fill="none" xmlns="http://www.w3.org/2000/svg">
<g clip-path="url(#clip0_69_11461)">
<path d="M35.3969 18.4788C32.8569 19.9108 30.7329 22.9018 29.5369 25.3318C28.9189 26.2508 29.2039 28.1188 30.9639 26.9488C32.2609 26.0848 34.8159 22.4168 36.4769 19.6878C36.6579 19.3888 36.8629 18.7588 36.7919 18.4598C36.5279 17.9338 35.7249 18.3228 35.3969 18.4788ZM45.7329 20.3028C43.9489 20.8008 42.6549 22.3408 41.9689 23.9358C41.6089 24.7708 41.1739 26.1498 41.6829 26.8338C41.8929 27.0918 42.2579 26.9418 42.4669 26.7898C43.1789 26.2998 43.6949 25.5398 44.1299 24.8608C44.9279 23.4428 45.6289 21.9278 45.8269 20.2818L45.7329 20.3028ZM52.7199 20.7788C51.7929 21.2568 51.2639 22.8018 51.0839 23.6588C50.8599 24.7348 50.6539 26.2008 51.1449 26.8448C51.2579 26.9528 51.4049 27.0318 51.5859 27.0268C52.3229 27.0428 52.8359 25.9088 53.1259 25.2568C53.6089 24.1728 54.0429 22.4598 53.8879 21.3648C53.8289 20.8008 53.2879 20.5508 52.7199 20.7788ZM34.4969 3.71482C36.2889 5.54282 36.8309 8.28382 35.9709 10.6368C33.9229 15.8568 28.6079 19.5768 23.0259 21.0698C20.3849 21.6648 16.5629 21.9558 14.1389 20.7208C11.9709 19.5288 10.9339 17.0128 11.3559 14.6328C12.0319 10.9928 14.8419 8.34683 18.1629 6.60183C20.9309 5.27383 24.2009 4.67883 27.5099 5.04983C27.8749 5.10783 28.2099 5.28382 28.3039 5.70482C28.3409 6.00782 28.2939 6.21282 28.1529 6.40683C27.9179 6.69182 27.6479 6.75983 27.3469 6.74283C23.6179 6.71983 19.7869 7.64283 17.0539 10.0528C15.4539 11.5668 14.1639 13.9598 15.3999 16.5028C16.1899 18.1028 19.0259 18.5928 20.6919 18.4418C30.3819 17.5488 33.3739 11.6518 33.9419 9.62882C35.1069 5.47082 31.0189 1.93282 23.1629 3.01982C12.9999 4.42683 6.67786 11.3028 5.38486 18.3478C4.02686 25.7498 11.1829 28.8898 18.6369 27.3278C21.6759 26.6928 24.8769 25.2528 28.0009 22.2908C30.5769 19.5968 34.1029 15.6768 38.0959 16.2818C38.5879 16.3938 39.1859 16.6418 39.3269 17.1848C39.5629 18.1458 39.0669 19.0048 38.7529 19.8578C35.5779 25.2538 35.9029 27.4428 36.4699 27.7218C37.6359 28.0908 38.3879 26.4338 38.9589 25.5058C39.7169 22.0138 42.4819 18.7038 46.0479 17.6998C46.1559 17.2798 46.1679 16.8548 46.1559 16.4198C46.1009 14.5498 45.2199 13.2548 44.6599 11.7278C44.5269 11.3258 44.6639 10.8318 44.9789 10.5298C45.2289 10.2728 45.7669 9.98983 46.2029 10.1068C46.6289 10.1798 46.9219 10.5208 47.1489 10.8208C47.9589 12.0628 48.8549 12.7798 50.5519 12.7788C51.8179 12.8218 53.1039 12.7368 54.1189 12.0708C54.7579 11.3428 55.4879 10.5548 56.4419 10.2978C56.9049 10.2058 57.2739 10.3018 57.5909 10.5838C57.8869 10.8818 57.9629 11.3318 57.8009 11.7318C57.5079 12.4808 56.4629 13.2038 55.7229 13.9858C54.5089 15.2738 53.6199 16.8428 52.9989 18.5138C53.3809 18.3958 53.9129 18.2698 54.4039 18.3638C55.8159 18.6288 56.2639 19.9788 56.3439 21.2638C56.3699 21.6678 56.3579 22.0998 56.2979 22.5168C57.1079 22.3908 57.6229 22.0898 58.2299 21.7788C59.2669 21.1988 60.1279 20.3458 60.9589 19.5358C61.3269 19.1978 61.8839 19.0758 62.3019 19.2308C62.6309 19.3278 62.9019 19.6188 62.9599 19.9788C63.1069 20.9518 62.2339 21.2568 60.9829 23.1468C60.2849 24.2048 59.4919 25.3038 59.3579 26.5998C59.3452 26.7119 59.3559 26.8254 59.3893 26.9331C59.4227 27.0409 59.4781 27.1405 59.5519 27.2258C59.8379 27.4628 60.3119 27.3378 60.6189 27.1608C61.2609 26.8058 61.7749 26.2318 62.1539 25.6428C62.7059 23.6358 63.4979 21.7298 65.1119 20.3348C65.5209 20.0288 66.0159 19.7388 66.5519 19.8568C66.8389 19.9068 67.0739 20.1128 67.1319 20.3418C67.4539 21.2998 66.7919 22.5498 66.3339 23.3518C65.7459 24.3858 64.7949 25.3788 63.9819 26.2898C63.9609 26.7678 64.0689 27.0758 64.4419 27.1698C65.0079 27.2428 65.4559 26.8228 65.8969 26.4698C67.1259 25.3288 68.2879 23.9928 69.0149 22.4628C68.8949 21.0848 69.3689 19.4998 70.6049 18.7728C71.0239 18.5638 71.5109 18.5858 71.8469 18.8128C72.1899 19.0748 72.2019 19.5728 72.1369 19.9968C72.0389 20.4938 71.7569 20.8868 71.5079 21.3178C72.1939 21.3618 72.7969 21.0408 73.4299 20.8828C73.5525 20.851 73.6811 20.8498 73.8044 20.8793C73.9277 20.9088 74.0418 20.968 74.1369 21.0518C74.4669 21.3618 74.4989 21.7648 74.3329 22.1648C73.9859 22.8998 73.5159 23.2948 73.0179 23.9858C72.3319 24.9398 71.7059 26.2218 71.6839 27.1828C71.6879 27.4088 71.7829 27.5648 71.9379 27.6298C72.3059 27.7598 72.6249 27.4858 72.9309 27.3008C75.0549 25.6998 76.6809 23.4138 78.4439 21.5138C78.9059 21.0838 79.4339 20.6418 80.0839 20.8468C80.3119 20.9268 80.4899 21.1068 80.5499 21.3508C80.6489 21.8108 80.3779 22.3878 80.0879 22.7738C79.2079 24.1118 78.0279 25.6338 77.9829 27.2158C77.9899 27.4918 78.0759 27.5858 78.2029 27.6258C78.7149 27.7728 79.3289 27.2518 79.7889 26.8268C81.3349 25.4118 82.3679 23.6118 83.5349 21.9528C83.7629 21.5948 84.1119 21.2998 84.5359 21.2528C84.8319 21.2358 85.0769 21.3148 85.2689 21.5128C85.7789 22.2298 85.3519 23.2988 84.9939 23.9858C83.4219 26.9408 81.7619 29.9298 80.1059 32.9458C79.2719 34.3978 78.8129 35.2148 78.7629 36.3448C78.7149 36.4748 78.5959 36.5388 78.4189 36.4748C77.4799 36.1278 77.1069 35.5498 77.0989 34.8548C77.0929 34.2398 77.6419 33.3678 77.8489 32.9608C78.6609 31.3658 79.7619 29.6808 80.5289 28.0858C80.4199 28.1738 80.2219 28.3738 80.0489 28.5158C79.0259 29.3458 78.0569 30.4118 76.6849 30.2248C76.2369 30.1448 75.8399 29.6918 75.7169 29.2388C75.4969 28.4718 75.6369 27.3738 75.8689 26.5888L75.7849 26.6718C74.6149 27.9128 73.3539 29.2958 71.7749 30.0698C71.2909 30.2898 70.4529 30.4478 69.9649 30.0088C69.0409 29.0588 69.2649 27.3698 69.7699 26.1318C70.1749 25.1158 70.7339 24.1658 71.3419 23.2698C70.8939 23.4068 70.4919 23.4708 70.0419 23.4748L69.8899 23.6948C68.4559 25.8338 67.0999 28.2418 64.9829 29.7208C64.2599 30.2278 63.3029 30.2688 62.7029 29.8868C62.1969 29.5618 61.9909 28.9718 61.8459 28.4268C60.7839 29.2308 58.9379 30.6388 57.6559 30.0128C56.8859 29.6028 56.5539 28.7348 56.5899 27.8558C56.6199 26.5878 57.1799 25.2788 57.6889 24.1418C57.4929 24.2338 57.3889 24.2738 57.1859 24.3648C56.6959 24.5848 56.1929 24.7388 55.6929 24.9258C55.3259 25.9578 54.5479 27.4088 54.1189 27.9888C53.4859 28.9578 52.2259 30.1788 51.0849 30.2138C50.1809 30.2758 49.3869 29.8578 48.9559 29.1088C47.9329 27.4568 48.4099 25.1988 48.8179 23.2548C49.5529 20.3388 50.7219 17.6278 52.1029 15.0798C51.6579 15.1368 51.3079 15.1618 50.8629 15.1878C50.0689 15.2378 49.4609 15.3128 48.6019 15.1438C48.6639 19.8038 47.4349 24.6058 44.3669 28.2818C43.4969 29.3218 42.0989 30.4158 40.5709 30.1778C39.6019 30.0338 38.8909 29.0518 38.7539 28.1628C38.0699 29.3328 36.7649 30.7388 34.8799 29.7068C33.7629 29.0918 33.7459 28.5398 33.6669 27.3168C33.6669 27.3168 31.3069 30.8808 28.2069 30.0438C26.8089 29.6548 25.6099 28.2698 26.3509 26.0628C22.4989 29.0228 18.1669 30.9478 14.3189 31.0138C9.00486 31.1078 4.31886 28.9468 2.04286 25.3368C-1.08314 20.3788 0.896859 13.4238 4.89986 9.01982C8.89986 4.61382 13.4399 2.78482 16.3889 1.82482C24.5689 -0.840175 31.5889 0.888825 34.4969 3.71482Z" fill="#CBD5E1"/>
</g>
<defs>
<clipPath id="clip0_69_11461">
<rect width="85" height="36" fill="white" transform="translate(0.503906 0.5)"/>
</clipPath>
</defs>
</svg>
