<svg width="108" height="33" viewBox="0 0 108 33" fill="none" xmlns="http://www.w3.org/2000/svg">
<g clip-path="url(#clip0_69_11458)">
<path d="M56.896 8.292C56.896 9.481 55.926 10.439 54.723 10.439C54.4393 10.4412 54.1579 10.3874 53.895 10.2806C53.6321 10.1738 53.3928 10.0162 53.191 9.81668C52.9892 9.61719 52.8288 9.37981 52.719 9.11817C52.6091 8.85652 52.5521 8.57576 52.551 8.292C52.551 7.102 53.487 6.145 54.723 6.145C55.961 6.178 56.896 7.135 56.896 8.292ZM47.938 12.619V13.148C47.938 13.148 46.902 11.826 44.696 11.826C41.052 11.826 38.211 14.568 38.211 18.366C38.211 22.132 41.019 24.906 44.696 24.906C46.936 24.906 47.938 23.553 47.938 23.553V24.113C47.938 24.378 48.138 24.576 48.406 24.576H51.113V12.156H48.406C48.2835 12.1583 48.1665 12.2076 48.0793 12.2938C47.9922 12.38 47.9416 12.4965 47.938 12.619ZM47.938 20.579C47.437 21.307 46.434 21.934 45.231 21.934C43.091 21.934 41.453 20.613 41.453 18.366C41.453 16.12 43.091 14.799 45.231 14.799C46.401 14.799 47.471 15.459 47.938 16.153V20.579ZM53.119 12.156H56.328V24.576H53.119V12.156ZM101.053 11.826C98.847 11.826 97.81 13.148 97.81 13.148V6.178H94.602V24.577H97.309C97.4317 24.5752 97.549 24.526 97.6362 24.4397C97.7235 24.3534 97.7739 24.2367 97.777 24.114V23.553C97.777 23.553 98.813 24.907 101.019 24.907C104.663 24.907 107.504 22.133 107.504 18.367C107.504 14.602 104.662 11.826 101.053 11.826ZM100.518 21.901C99.281 21.901 98.312 21.274 97.81 20.547V16.12C98.312 15.46 99.381 14.766 100.518 14.766C102.658 14.766 104.295 16.087 104.295 18.333C104.295 20.58 102.658 21.901 100.518 21.901ZM92.931 17.211V24.61H89.721V17.574C89.721 15.526 89.053 14.7 87.249 14.7C86.279 14.7 85.277 15.196 84.64 15.923V24.577H81.432V12.157H83.972C84.239 12.157 84.44 12.388 84.44 12.619V13.148C85.376 12.19 86.613 11.826 87.85 11.826C89.253 11.826 90.423 12.223 91.36 13.016C92.495 13.941 92.931 15.13 92.931 17.211ZM73.643 11.826C71.437 11.826 70.401 13.148 70.401 13.148V6.178H67.191V24.577H69.899C70.0217 24.5752 70.139 24.526 70.2262 24.4397C70.3135 24.3534 70.3639 24.2367 70.367 24.114V23.553C70.367 23.553 71.404 24.907 73.609 24.907C77.253 24.907 80.094 22.133 80.094 18.367C80.128 14.601 77.287 11.826 73.643 11.826ZM73.108 21.9C71.871 21.9 70.902 21.273 70.401 20.546V16.12C70.902 15.46 71.971 14.766 73.108 14.766C75.248 14.766 76.885 16.087 76.885 18.333C76.885 20.58 75.248 21.9 73.108 21.9ZM64.418 11.825C65.386 11.825 65.888 11.99 65.888 11.99V14.93C65.888 14.93 63.214 14.038 61.543 15.921V24.609H58.333V12.156H61.041C61.309 12.156 61.509 12.388 61.509 12.619V13.148C62.111 12.454 63.415 11.826 64.417 11.826L64.418 11.825ZM31.09 23.454C30.923 23.057 30.756 22.628 30.589 22.264C30.321 21.67 30.054 21.108 29.82 20.58L29.787 20.547C27.4457 15.5112 24.9823 10.5331 22.399 5.617L22.299 5.417C22.0247 4.9033 21.7574 4.38592 21.497 3.865C21.163 3.27 20.829 2.643 20.294 2.048C19.224 0.727 17.688 0 16.05 0C14.378 0 12.874 0.727 11.772 1.982C11.27 2.576 10.902 3.204 10.568 3.799C10.307 4.31992 10.0397 4.83763 9.76602 5.352L9.66602 5.55C7.09202 10.505 4.58602 15.526 2.27902 20.48L2.24502 20.546C2.01102 21.076 1.74302 21.636 1.47502 22.231C1.30902 22.594 1.14202 22.991 0.97502 23.42C0.54002 24.642 0.40602 25.798 0.57402 26.988C0.757089 28.2015 1.25443 29.346 2.01665 30.3079C2.77887 31.2697 3.77945 32.0155 4.91902 32.471C5.78902 32.835 6.69102 33 7.62702 33C7.89402 33 8.22802 32.967 8.49702 32.934C9.67476 32.7863 10.8111 32.4044 11.839 31.811C13.209 31.051 14.513 29.961 15.984 28.376C17.454 29.961 18.792 31.051 20.129 31.811C21.232 32.439 22.369 32.801 23.471 32.934C23.739 32.967 24.073 33 24.341 33C25.277 33 26.212 32.835 27.048 32.471C28.1885 32.0167 29.19 31.2714 29.9525 30.3093C30.7151 29.3472 31.2121 28.2021 31.394 26.988C31.659 25.832 31.525 24.676 31.09 23.454ZM16.016 25.17C14.211 22.924 13.041 20.81 12.64 19.027C12.473 18.267 12.44 17.607 12.54 17.011C12.606 16.483 12.807 16.021 13.075 15.624C13.71 14.733 14.78 14.171 16.017 14.171C17.254 14.171 18.357 14.699 18.958 15.624C19.226 16.02 19.426 16.484 19.494 17.011C19.594 17.606 19.56 18.3 19.394 19.027C18.991 20.777 17.821 22.891 16.016 25.17ZM29.353 26.723C29.119 28.44 27.949 29.927 26.311 30.588C25.509 30.918 24.64 31.018 23.771 30.918C22.936 30.818 22.099 30.554 21.231 30.059C20.027 29.399 18.824 28.375 17.421 26.855C19.626 24.18 20.963 21.735 21.465 19.555C21.6826 18.6357 21.7391 17.6856 21.632 16.747C21.5076 15.9389 21.1986 15.1703 20.729 14.501C19.692 13.014 17.954 12.155 16.016 12.155C14.078 12.155 12.339 13.047 11.303 14.501C10.8336 15.1704 10.5246 15.9389 10.4 16.747C10.267 17.607 10.3 18.564 10.567 19.555C11.069 21.735 12.439 24.212 14.612 26.888C13.242 28.408 12.004 29.432 10.801 30.092C9.93102 30.588 9.09602 30.852 8.26102 30.952C7.40014 31.047 6.52904 30.9338 5.72102 30.622C4.08302 29.96 2.91302 28.473 2.67902 26.756C2.56844 25.8857 2.67141 25.0016 2.97902 24.18C3.07902 23.849 3.24702 23.519 3.41402 23.123C3.64802 22.594 3.91502 22.032 4.18302 21.471L4.21702 21.405C6.5535 16.4051 9.00516 11.4597 11.57 6.573L11.67 6.375C11.938 5.88 12.206 5.351 12.473 4.855C12.74 4.327 13.041 3.831 13.409 3.402C14.111 2.61 15.046 2.18 16.083 2.18C17.12 2.18 18.055 2.61 18.757 3.402C19.125 3.832 19.426 4.328 19.693 4.856C19.961 5.351 20.228 5.88 20.495 6.375L20.595 6.573C23.1295 11.4811 25.5702 16.437 27.916 21.438V21.471C28.184 22.001 28.418 22.594 28.686 23.124C28.852 23.519 29.019 23.849 29.12 24.18C29.386 25.038 29.487 25.864 29.353 26.723Z" fill="#CBD5E1"/>
</g>
<defs>
<clipPath id="clip0_69_11458">
<rect width="107" height="33" fill="white" transform="translate(0.503906)"/>
</clipPath>
</defs>
</svg>
