<svg width="111" height="21" viewBox="0 0 111 21" fill="none" xmlns="http://www.w3.org/2000/svg">
<g clip-path="url(#clip0_69_11452)">
<path d="M57.1339 10.2C56.2259 10.2 55.5709 10.487 54.9079 10.78V17.402C55.5429 17.461 55.9079 17.461 56.5109 17.461C58.6909 17.461 58.9909 16.498 58.9909 15.153V11.99C58.9909 10.997 58.6489 10.2 57.1339 10.2ZM42.6559 9.838C41.1429 9.838 40.7979 10.639 40.7979 11.631V12.188H44.5119V11.631C44.5119 10.639 44.1669 9.838 42.6559 9.838ZM14.6079 16.731C14.6079 17.516 14.9919 17.924 15.8389 17.924C16.7489 17.924 17.2859 17.638 17.9489 17.344V15.774H15.9639C15.0229 15.774 14.6079 15.942 14.6079 16.731ZM71.2179 10.199C69.7029 10.199 69.1779 10.997 69.1779 11.99V15.614C69.1779 16.609 69.7029 17.409 71.2179 17.409C72.7289 17.409 73.2579 16.609 73.2579 15.614V11.99C73.2579 10.997 72.7289 10.199 71.2179 10.199ZM7.18391 20.795H2.72891V10.396H0.503906V6.813H2.72991V4.661C2.72991 1.738 3.98591 0 7.55591 0H10.5279V3.584H8.66991C7.27991 3.584 7.18891 4.084 7.18891 5.019L7.18291 6.813H10.5489L10.1549 10.396H7.18291L7.18391 20.795ZM22.4059 20.822H18.6929L18.5329 19.916C17.2416 20.6137 15.7957 20.9758 14.3279 20.969C11.6049 20.969 10.1559 19.214 10.1559 16.789C10.1559 13.926 11.8469 12.905 14.8719 12.905H17.9509V12.286C17.9509 10.826 17.7769 10.396 15.4479 10.396H11.6399L12.0119 6.813H16.1739C21.2839 6.813 22.4059 8.371 22.4059 12.315V20.822ZM35.0279 10.659C32.7179 10.277 32.0549 10.193 30.9439 10.193C28.9469 10.193 28.3439 10.618 28.3439 12.253V15.347C28.3439 16.982 28.9469 17.409 30.9439 17.409C32.0549 17.409 32.7179 17.323 35.0279 16.939V20.435C33.0049 20.872 31.6869 20.987 30.5729 20.987C25.7909 20.987 23.8909 18.562 23.8909 15.057V12.547C23.8909 9.041 25.7909 6.611 30.5729 6.611C31.6869 6.611 33.0049 6.726 35.0279 7.166V10.659ZM48.9659 15.058H40.7989V15.347C40.7989 16.982 41.4019 17.409 43.3989 17.409C45.1919 17.409 46.2879 17.323 48.5929 16.939V20.435C46.3699 20.872 45.2109 20.987 43.0289 20.987C38.2469 20.987 36.3449 18.562 36.3449 15.057V12.187C36.3449 9.122 37.7559 6.611 42.6559 6.611C47.5559 6.611 48.9659 9.093 48.9659 12.188V15.058ZM63.4439 15.124C63.4439 18.511 62.4409 20.981 56.3619 20.981C54.1659 20.981 52.8789 20.795 50.4559 20.435V1.076L54.9069 0.36V7.132C55.8689 6.787 57.1149 6.612 58.2469 6.612C62.7009 6.612 63.4429 8.537 63.4429 11.632L63.4439 15.124ZM77.7159 15.198C77.7159 18.119 76.4659 20.953 71.2339 20.953C65.9999 20.953 64.7259 18.119 64.7259 15.198V12.377C64.7259 9.454 65.9999 6.62 71.2339 6.62C76.4659 6.62 77.7159 9.454 77.7159 12.377V15.197V15.198ZM91.9789 15.198C91.9789 18.119 90.7269 20.953 85.4959 20.953C80.2619 20.953 78.9879 18.119 78.9879 15.198V12.377C78.9879 9.454 80.2619 6.62 85.4959 6.62C90.7269 6.62 91.9789 9.454 91.9789 12.377V15.197V15.198ZM106.616 20.795H101.79L97.7079 14.222V20.795H93.2539V1.076L97.7079 0.359V13.054L101.79 6.814H106.616L102.16 13.624L106.616 20.795ZM85.4799 10.199C83.9669 10.199 83.4419 10.997 83.4419 11.99V15.614C83.4419 16.609 83.9669 17.409 85.4799 17.409C86.9899 17.409 87.5249 16.609 87.5249 15.614V11.99C87.5249 10.997 86.9909 10.199 85.4799 10.199ZM109.157 18.342C109.907 18.342 110.504 18.932 110.504 19.669C110.504 20.417 109.906 21 109.151 21C108.4 21 107.791 20.417 107.791 19.669C107.791 18.932 108.4 18.342 109.151 18.342H109.157ZM109.151 18.548C108.547 18.548 108.053 19.05 108.053 19.668C108.053 20.298 108.547 20.794 109.157 20.794C109.767 20.8 110.254 20.299 110.254 19.674C110.254 19.05 109.767 18.548 109.157 18.548H109.151ZM108.895 20.441H108.651V18.961C108.779 18.943 108.901 18.926 109.085 18.926C109.317 18.926 109.468 18.973 109.562 19.038C109.652 19.103 109.7 19.203 109.7 19.344C109.7 19.539 109.567 19.656 109.402 19.704V19.715C109.536 19.739 109.627 19.856 109.658 20.074C109.694 20.304 109.731 20.392 109.755 20.44H109.499C109.463 20.392 109.426 20.257 109.395 20.062C109.359 19.874 109.261 19.803 109.065 19.803H108.895V20.441ZM108.895 19.621H109.072C109.272 19.621 109.443 19.551 109.443 19.367C109.443 19.237 109.347 19.108 109.073 19.108C108.993 19.108 108.937 19.114 108.895 19.12V19.621Z" fill="#CBD5E1"/>
</g>
<defs>
<clipPath id="clip0_69_11452">
<rect width="110" height="21" fill="white" transform="translate(0.503906)"/>
</clipPath>
</defs>
</svg>
