<svg width="87" height="19" viewBox="0 0 87 19" fill="none" xmlns="http://www.w3.org/2000/svg">
<g clip-path="url(#clip0_69_11464)">
<path d="M7.28391 13.31C8.65991 15.585 11.1859 17.111 13.9959 17.111C18.1489 17.111 20.4359 13.499 20.4359 13.499L20.7299 14.462C18.8069 16.982 15.3719 18.5 11.5299 18.5C7.10491 18.5 3.28991 16.373 1.53391 13.305C0.862904 12.1489 0.507694 10.8367 0.503906 9.5C0.503906 4.53 5.43991 0.5 11.5289 0.5C15.8319 0.5 19.2959 2.358 21.1149 5.05L13.8949 9.407L18.0149 3.03C16.8369 2.283 15.3909 1.583 13.8949 1.583C9.66791 1.583 6.18691 5.138 6.18691 9.398C6.18691 10.826 6.58891 12.167 7.28291 13.309L7.28391 13.31ZM26.6139 13.307C26.5924 13.4523 26.5817 13.5991 26.5819 13.746C26.5819 15.363 27.8819 16.674 29.4869 16.674C31.0919 16.674 32.3919 15.364 32.3919 13.746C32.3939 13.3629 32.3203 12.9831 32.1752 12.6285C32.0302 12.2739 31.8167 11.9513 31.5469 11.6793C31.277 11.4073 30.9562 11.1913 30.6027 11.0435C30.2492 10.8957 29.87 10.819 29.4869 10.818C28.7893 10.8202 28.1157 11.0725 27.5885 11.5293C27.0613 11.9861 26.7154 12.6169 26.6139 13.307ZM37.3939 13.305L38.8389 18.207H33.7729L32.7779 14.851C32.1109 16.785 29.8599 18.207 27.1859 18.207C23.9869 18.207 21.3939 16.171 21.3939 13.659C21.3939 13.541 21.3999 13.424 21.4109 13.305C21.6389 10.96 24.1369 9.11 27.1859 9.11C28.9159 9.11 30.4699 9.706 31.5319 10.65L30.1519 6.002H24.3389C24.3389 6.002 25.3059 5.417 29.5949 3.844C33.8849 2.271 35.2429 6.002 35.2429 6.002L37.3939 13.305ZM53.5889 13.305V18.207H48.3769V7.437C48.3782 7.05808 48.2291 6.69413 47.9623 6.42507C47.6955 6.15602 47.3328 6.00385 46.9539 6.002C46.3669 6.002 45.8399 6.364 45.6269 6.916V18.207H40.5109V6.002H37.5279C37.5279 6.002 41.6779 3.468 43.1179 3.468C44.4809 3.468 45.4909 4.524 45.6169 5.868C47.6239 4.778 49.6139 3.468 50.9829 3.468C51.6641 3.47066 52.3175 3.73885 52.8041 4.21557C53.2907 4.69229 53.5723 5.33998 53.5889 6.021V13.305ZM61.6179 13.305L62.3429 15.721C62.35 16.2185 62.5529 16.6932 62.9076 17.0421C63.2624 17.3911 63.7403 17.5861 64.2379 17.585C64.5096 17.584 64.7781 17.5255 65.0256 17.4133C65.2731 17.3012 65.4941 17.1379 65.674 16.9343C65.8539 16.7307 65.9887 16.4913 66.0695 16.2318C66.1504 15.9724 66.1754 15.6988 66.1429 15.429L65.5269 13.305L63.3609 5.846C63.31 5.37549 63.0874 4.94024 62.7358 4.62349C62.3842 4.30673 61.9282 4.13068 61.4549 4.129C60.4769 4.129 59.5449 5.049 59.4269 6.001L61.6179 13.305ZM69.9119 13.306C68.9249 16.323 66.1059 18.5 62.7819 18.5C59.4589 18.5 56.6399 16.323 55.6519 13.305C55.4019 12.5399 55.275 11.7399 55.2759 10.935C55.2759 6.757 58.6359 3.37 62.7819 3.37C66.9279 3.37 70.2879 6.757 70.2879 10.935C70.2879 11.763 70.1559 12.56 69.9119 13.306ZM78.5419 13.306V18.207H73.4259V6.002H70.5659C70.5659 6.002 74.5929 3.468 76.0319 3.468C77.3959 3.468 78.4049 4.524 78.5319 5.868C80.5389 4.778 82.5289 3.468 83.8979 3.468C84.579 3.4704 85.2324 3.73837 85.719 4.21493C86.2057 4.69149 86.4872 5.33907 86.5039 6.02V18.206H81.2919V7.437C81.2932 7.05791 81.144 6.69381 80.877 6.42472C80.6099 6.15564 80.247 6.00359 79.8679 6.002C79.2809 6.002 78.7549 6.364 78.5409 6.916L78.5419 13.306Z" fill="#CBD5E1"/>
</g>
<defs>
<clipPath id="clip0_69_11464">
<rect width="86" height="18" fill="white" transform="translate(0.503906 0.5)"/>
</clipPath>
</defs>
</svg>
