<svg width="71" height="25" viewBox="0 0 71 25" fill="none" xmlns="http://www.w3.org/2000/svg">
<g clip-path="url(#clip0_69_11455)">
<path d="M10.7829 0C10.9509 0.077 11.0569 0.237 11.1929 0.364C11.4109 0.552 11.5729 0.8 11.7869 0.994C12.0499 1.241 12.2179 1.556 12.4369 1.837C12.8179 2.406 13.1549 3.013 13.3289 3.675C13.5089 4.127 13.5359 4.618 13.5249 5.104C13.5359 5.545 13.4129 5.981 13.2109 6.378C12.8629 6.98 12.2349 7.382 11.5789 7.598C10.7599 7.791 9.85686 7.824 9.06686 7.482C8.78086 7.327 8.45486 7.222 8.22586 6.98C7.69286 6.55 7.38386 5.849 7.48586 5.17C7.64186 3.962 8.37586 2.924 9.16186 2.03C9.23486 2.163 9.17286 2.317 9.22386 2.455C9.29086 2.748 9.39786 3.057 9.62186 3.266C9.89686 3.018 10.1879 2.77 10.4239 2.483C10.6369 2.173 10.8109 1.832 10.8839 1.468C10.9009 1.004 10.9449 0.518 10.7659 0.078L10.7829 0ZM0.508859 5.512C1.82086 5.523 3.13886 5.501 4.45186 5.523C4.45186 6.809 4.46186 8.094 4.44586 9.38C5.37586 9.396 6.30786 9.385 7.24386 9.385C7.25486 9.485 7.26086 9.584 7.26086 9.683C7.24986 10.743 7.26686 11.796 7.24986 12.856C6.31286 12.866 5.38186 12.856 4.44586 12.861C4.46286 14.765 4.43986 16.663 4.45686 18.566C4.49086 18.732 4.51286 18.897 4.50686 19.068C4.49086 19.223 4.58586 19.35 4.61986 19.493C4.69286 19.824 4.87786 20.123 5.08986 20.382C5.40758 20.6917 5.80615 20.9055 6.23986 20.999C6.63286 21.06 7.02486 21.093 7.42386 21.066C7.4461 21.1317 7.45726 21.2006 7.45686 21.27C7.45186 22.263 7.45186 23.256 7.45686 24.244C7.45686 24.382 7.42886 24.52 7.40686 24.652C6.83986 24.652 6.27386 24.691 5.70686 24.652C5.37086 24.58 5.01186 24.613 4.68686 24.47C3.78386 24.26 2.92086 23.819 2.27586 23.151C1.32786 22.251 0.817859 20.983 0.609859 19.725C0.553859 19.587 0.587859 19.427 0.564859 19.278C0.486859 18.975 0.519859 18.654 0.508859 18.346C0.504859 14.07 0.504859 9.788 0.508859 5.512ZM19.6649 9.087C19.9009 9.027 20.1529 9.071 20.3889 9.021C20.8819 8.961 21.3699 9.038 21.8579 9.054C22.1999 9.049 22.5309 9.148 22.8679 9.214C24.1179 9.512 25.3009 10.169 26.1589 11.129C26.3109 11.377 26.5409 11.559 26.6859 11.813C27.0509 12.381 27.2919 13.016 27.4989 13.656C27.6289 14.125 27.6959 14.61 27.7569 15.09C27.7849 16.155 27.7689 17.225 27.7739 18.29C27.7689 20.415 27.7799 22.539 27.7689 24.663C26.4559 24.646 25.1489 24.658 23.8429 24.652C23.8249 24.6408 23.8081 24.6277 23.7929 24.613C23.7869 21.64 23.7929 18.666 23.7929 15.697C23.7979 15.333 23.7309 14.98 23.6529 14.632C23.5129 14.279 23.3329 13.942 23.0859 13.656C22.9399 13.485 22.7379 13.374 22.5759 13.226C22.3229 13.06 22.0259 12.983 21.7399 12.906C21.5889 12.894 21.4369 12.906 21.2969 12.856C20.6969 12.817 20.0859 12.866 19.5249 13.093C19.1149 13.286 18.7349 13.551 18.4649 13.921C18.0219 14.439 17.8759 15.145 17.8879 15.808C17.8879 18.754 17.8929 21.706 17.8879 24.652C16.5639 24.663 15.2409 24.646 13.9179 24.663C13.8949 21.822 13.9179 18.975 13.9059 16.133C13.9119 15.769 13.9009 15.405 13.9289 15.041C14.0019 14.858 13.9509 14.66 14.0069 14.483C14.1079 13.81 14.3659 13.17 14.6519 12.558C14.9319 12.022 15.2689 11.509 15.7059 11.085C16.0479 10.742 16.4019 10.384 16.8329 10.147C17.6689 9.573 18.6559 9.225 19.6649 9.087ZM66.6589 9.054C67.1469 9.044 67.6289 8.949 68.1169 9.027C68.3799 9.06 68.6489 9.054 68.9129 9.065C68.9629 9.545 68.9239 10.031 68.9349 10.511V12.441C68.9349 12.563 68.9519 12.691 68.9019 12.806C68.7719 12.712 68.5989 12.746 68.4529 12.706C67.8589 12.657 67.2469 12.685 66.6869 12.906C66.0116 13.1329 65.448 13.6084 65.1109 14.236C65.0159 14.351 65.0159 14.516 64.9089 14.626C64.7349 15.245 64.7239 15.89 64.7349 16.525C64.7289 19.239 64.7519 21.948 64.7239 24.663C63.4169 24.647 62.1049 24.663 60.7929 24.652C60.7819 24.641 60.7649 24.619 60.7529 24.608V15.752C60.7369 15.382 60.8209 15.024 60.8149 14.66C60.9049 14.483 60.8829 14.28 60.9389 14.097C61.2189 12.701 61.9649 11.383 63.0979 10.483C63.3159 10.24 63.6299 10.125 63.8879 9.931C64.7239 9.429 65.6949 9.187 66.6589 9.054ZM8.53386 9.38C9.85686 9.402 11.1809 9.374 12.5039 9.39C12.5039 14.44 12.4989 19.482 12.5039 24.525C12.5039 24.575 12.5039 24.675 12.4259 24.658H8.54486C8.51086 23.824 8.53886 22.986 8.52686 22.153C8.53286 17.899 8.52686 13.639 8.53286 9.38H8.53386ZM50.0599 19.62C50.3959 19.493 50.7209 19.328 51.0629 19.212C51.5569 19.024 52.0389 18.798 52.5329 18.61C53.5529 18.147 54.6079 17.76 55.6389 17.325C55.8859 17.192 56.1659 17.132 56.4079 16.988C56.6819 16.883 56.9579 16.79 57.2259 16.668C57.4619 16.53 57.7309 16.475 57.9719 16.354C58.2919 16.227 58.5999 16.084 58.9259 15.968C59.2559 15.785 59.6259 15.698 59.9569 15.521C60.0469 15.46 60.1929 15.476 60.2489 15.371C60.1539 15.239 60.2039 15.074 60.1539 14.931C60.0809 14.671 60.0079 14.417 59.9459 14.163C59.6994 13.3921 59.3241 12.6685 58.8359 12.023C58.2359 11.167 57.4109 10.478 56.4969 9.97C55.8969 9.611 55.2239 9.407 54.5509 9.23C54.1359 9.181 53.7379 9.038 53.3179 9.043C52.9359 8.993 52.5439 8.971 52.1679 9.038C51.5009 9.048 50.8619 9.208 50.2279 9.391C49.1229 9.771 48.0739 10.351 47.2279 11.151C46.9749 11.383 46.7679 11.653 46.5269 11.891C46.1459 12.3583 45.8185 12.8668 45.5509 13.407C45.1859 14.219 44.8389 15.068 44.7989 15.967C44.6759 16.397 44.7149 16.85 44.7089 17.292C44.6989 17.573 44.7429 17.849 44.7989 18.119C44.7829 18.406 44.8949 18.671 44.9339 18.947C45.0289 19.532 45.2929 20.072 45.5339 20.613C46.1959 21.948 47.2389 23.107 48.5449 23.863C49.4029 24.382 50.3569 24.751 51.3549 24.889C52.171 25.0194 53.0015 25.0343 53.8219 24.933C54.1019 24.955 54.3719 24.834 54.6519 24.818C55.8469 24.542 57.0189 24.045 57.9219 23.212C58.1909 23.002 58.4429 22.754 58.6559 22.489C59.0159 22.13 59.2729 21.695 59.5309 21.264C59.7795 20.8046 59.9789 20.3203 60.1259 19.819C60.0469 19.786 59.9569 19.797 59.8789 19.797C58.5669 19.802 57.2599 19.791 55.9479 19.797C55.8249 19.797 55.8249 19.962 55.7459 20.028C55.5219 20.348 55.2359 20.618 54.9329 20.873C54.4949 21.182 53.9789 21.347 53.4689 21.496C53.3349 21.513 53.2059 21.507 53.0819 21.556C52.7679 21.579 52.4489 21.568 52.1289 21.562C51.7742 21.4996 51.4238 21.4147 51.0799 21.308C50.5529 21.044 50.0369 20.74 49.6399 20.31C49.5379 20.188 49.3759 20.095 49.3419 19.935C49.4319 19.895 49.5159 19.835 49.6169 19.819C49.7789 19.791 49.9029 19.664 50.0599 19.62ZM48.4449 16.828C48.3659 16.635 48.4389 16.408 48.4279 16.205C48.5179 15.923 48.5459 15.625 48.6519 15.344C48.9219 14.721 49.2519 14.108 49.7339 13.617C49.9589 13.435 50.1489 13.214 50.4069 13.077C50.5969 12.977 50.7829 12.867 50.9789 12.778C51.3439 12.674 51.6969 12.508 52.0789 12.508C52.4259 12.425 52.7849 12.469 53.1389 12.475C54.0639 12.602 54.9949 12.994 55.5939 13.716C55.6559 13.86 55.4489 13.871 55.3639 13.926C54.9999 14.125 54.5909 14.224 54.2259 14.428C54.0639 14.456 53.9229 14.555 53.7659 14.605C52.6059 15.101 51.4219 15.537 50.2729 16.055C49.6559 16.293 49.0449 16.547 48.4449 16.828ZM44.2669 2.638C43.0389 2.626 41.8109 2.638 40.5819 2.632C40.4919 2.642 40.3859 2.604 40.3129 2.67C40.3239 5.264 40.3129 7.862 40.3189 10.456C40.3129 10.549 40.3359 10.643 40.2959 10.731C40.1839 10.715 40.1279 10.611 40.0439 10.549C39.4779 10.069 38.8439 9.661 38.1369 9.424C37.6609 9.242 37.1619 9.148 36.6569 9.06C36.0849 9.049 35.5069 9.032 34.9299 9.065C34.8679 9.082 34.8119 9.098 34.7499 9.104C33.4659 9.28 32.2659 9.871 31.2799 10.682C30.7299 11.189 30.1799 11.719 29.7929 12.359C29.3389 12.994 29.0469 13.722 28.7669 14.439C28.6369 14.892 28.5089 15.339 28.4529 15.802C28.3459 16.514 28.3909 17.242 28.4029 17.959C28.4299 18.147 28.4929 18.323 28.4979 18.511C28.5979 19.118 28.7779 19.714 29.0249 20.282C29.2319 20.828 29.5689 21.325 29.8769 21.822C30.0959 22.097 30.3089 22.384 30.5729 22.627C30.9649 23.007 31.3519 23.422 31.8449 23.687C32.4289 24.122 33.1179 24.382 33.7909 24.635C34.0379 24.68 34.2679 24.818 34.5209 24.823C34.7329 24.84 34.9299 24.939 35.1429 24.928C35.2549 24.917 35.3559 24.994 35.4729 24.983C36.0179 25 36.5669 25 37.1109 24.983C37.2009 24.983 37.2909 24.944 37.3859 24.939C37.7619 24.944 38.1089 24.801 38.4739 24.751C38.9499 24.581 39.4609 24.47 39.9039 24.216C40.5599 23.918 41.1539 23.499 41.6869 23.024C42.3561 22.4442 42.9063 21.7398 43.3069 20.95C43.4819 20.602 43.6769 20.266 43.7899 19.89C44.0029 19.372 44.0979 18.82 44.1709 18.274C44.2949 17.794 44.2549 17.292 44.2669 16.795V2.638ZM40.2799 17.578C40.2459 18.164 40.0219 18.721 39.7579 19.245C39.3149 20.067 38.5689 20.696 37.7229 21.093C37.5929 21.159 37.4249 21.154 37.3359 21.275C37.1789 21.275 37.0219 21.281 36.8699 21.336C36.3879 21.347 35.8889 21.391 35.4179 21.259C35.2159 21.165 34.9919 21.126 34.7899 21.022C34.5369 20.884 34.2509 20.79 34.0439 20.58C33.6509 20.31 33.3479 19.94 33.0739 19.56C32.8539 19.19 32.6359 18.81 32.5349 18.39C32.4229 18.169 32.4349 17.92 32.3729 17.689C32.3559 17.099 32.3229 16.492 32.4629 15.918C32.5239 15.736 32.5629 15.543 32.6309 15.361C32.7929 15.068 32.8939 14.743 33.1069 14.478C33.2189 14.246 33.4159 14.075 33.5729 13.876C33.9929 13.402 34.5709 13.098 35.1539 12.861C35.3729 12.811 35.5859 12.701 35.8159 12.701C36.2809 12.585 36.7639 12.679 37.2229 12.762C37.8289 12.977 38.4289 13.275 38.8999 13.717C39.0739 13.877 39.2029 14.075 39.3769 14.235C40.0977 15.1916 40.4212 16.3896 40.2799 17.579V17.578ZM66.6249 22.721H68.0949C68.0999 22.831 68.0999 22.941 68.0949 23.051C67.9259 23.074 67.7579 23.046 67.5949 23.068C67.5729 23.565 67.5949 24.056 67.5839 24.553C67.4344 24.5427 67.2845 24.5407 67.1349 24.547C67.1189 24.155 67.1249 23.758 67.1299 23.367C67.1299 23.262 67.1519 23.14 67.0569 23.068C66.9109 23.046 66.7649 23.074 66.6189 23.052C66.6139 22.942 66.6139 22.832 66.6249 22.721ZM68.3629 22.726C68.5709 22.721 68.7779 22.71 68.9859 22.737C68.9749 22.897 69.1089 23.007 69.1489 23.157C69.2049 23.344 69.2889 23.521 69.3449 23.709C69.3899 23.791 69.4679 23.863 69.4399 23.968C69.5519 23.538 69.7259 23.129 69.8999 22.726C70.0998 22.7177 70.2999 22.7177 70.4999 22.726C70.5109 23.316 70.4999 23.918 70.4999 24.509C70.3649 24.519 70.2299 24.519 70.0899 24.509C70.0959 24.095 70.0899 23.681 70.1019 23.273C70.0519 23.317 70.0009 23.355 69.9619 23.411C69.8889 23.786 69.6919 24.128 69.5969 24.503C69.4875 24.5187 69.3767 24.5208 69.2669 24.509C69.2329 24.299 69.0809 24.128 69.0809 23.913C68.9299 23.731 68.9239 23.471 68.8059 23.267C68.7279 23.417 68.7899 23.593 68.7729 23.753C68.7499 24.012 68.8009 24.277 68.7499 24.536C68.6159 24.536 68.4639 24.58 68.3579 24.486C68.3749 23.902 68.3579 23.316 68.3629 22.726Z" fill="#CBD5E1"/>
</g>
<defs>
<clipPath id="clip0_69_11455">
<rect width="70" height="25" fill="white" transform="translate(0.503906)"/>
</clipPath>
</defs>
</svg>
