<svg width="93" height="29" viewBox="0 0 93 29" fill="none" xmlns="http://www.w3.org/2000/svg">
<g clip-path="url(#clip0_69_11449)">
<path d="M57.5769 22.397C52.2509 26.38 44.5049 28.5 37.8209 28.5C28.4609 28.5 20.0669 25.008 13.6759 19.2C13.1909 18.742 13.6109 18.122 14.2239 18.481C21.0999 22.528 29.5899 24.943 38.3699 24.943C44.2779 24.943 50.7979 23.703 56.8029 21.125C57.7059 20.765 58.4489 21.745 57.5769 22.397ZM59.8049 19.82C59.1269 18.94 55.2849 19.396 53.5749 19.625C53.0579 19.69 52.9609 19.233 53.4449 18.907C56.5119 16.72 61.5149 17.373 62.0969 18.091C62.6769 18.809 61.9349 23.9 59.0619 26.315C58.6099 26.673 58.1909 26.478 58.3839 25.988C59.0299 24.356 60.4839 20.734 59.8049 19.82ZM53.6709 3.568V1.446C53.6709 1.12 53.8969 0.924 54.1879 0.924H63.5489C63.8389 0.924 64.0979 1.153 64.0979 1.446V3.241C64.0979 3.535 63.8399 3.927 63.3879 4.579L58.5459 11.563C60.3529 11.53 62.2579 11.791 63.8719 12.705C64.2269 12.901 64.3239 13.227 64.3559 13.521V15.773C64.3559 16.099 64.0329 16.458 63.6779 16.263C60.8049 14.728 56.9639 14.565 53.7999 16.295C53.4779 16.458 53.1229 16.132 53.1229 15.805V13.652C53.1229 13.325 53.1229 12.738 53.4779 12.216L59.0939 4.09H54.2199C53.9299 4.09 53.6709 3.861 53.6709 3.568ZM19.5509 16.719H16.7099C16.4519 16.686 16.2259 16.491 16.1929 16.229V1.48C16.1929 1.186 16.4519 0.958 16.7429 0.958H19.3889C19.6789 0.958 19.8729 1.186 19.9059 1.448V3.373H19.9699C20.6479 1.512 21.9719 0.63 23.7149 0.63C25.4899 0.63 26.6199 1.51 27.3949 3.37C28.0729 1.51 29.6549 0.63 31.3329 0.63C32.5269 0.63 33.8189 1.119 34.6259 2.261C35.5299 3.501 35.3359 5.296 35.3359 6.895V16.229C35.3359 16.522 35.0779 16.751 34.7869 16.751H31.9789C31.6889 16.718 31.4619 16.49 31.4619 16.229V8.397C31.4619 7.777 31.5269 6.211 31.3979 5.624C31.1719 4.644 30.5579 4.351 29.7189 4.351C29.0409 4.351 28.2989 4.808 28.0089 5.558C27.7179 6.308 27.7489 7.549 27.7489 8.398V16.23C27.7489 16.523 27.4919 16.752 27.2009 16.752H24.3609C24.0699 16.719 23.8439 16.491 23.8439 16.23V8.397C23.8439 6.766 24.1019 4.318 22.1009 4.318C20.0669 4.318 20.1309 6.668 20.1309 8.398V16.23C20.1115 16.3688 20.0416 16.4955 19.9345 16.5859C19.8275 16.6763 19.6909 16.7231 19.5509 16.719ZM72.1679 0.631C76.3969 0.631 78.6879 4.286 78.6879 8.952C78.6879 13.456 76.1709 17.045 72.1679 17.045C68.0359 17.045 65.7769 13.39 65.7769 8.822C65.7439 4.22 68.0369 0.63 72.1679 0.63V0.631ZM72.1679 3.666C70.0699 3.666 69.9409 6.57 69.9409 8.365C69.9409 10.16 69.9089 14.01 72.1359 14.01C74.3309 14.01 74.4599 10.91 74.4599 9.017C74.4599 7.777 74.3959 6.277 74.0399 5.101C73.7179 4.057 73.0719 3.666 72.1679 3.666ZM84.1449 16.719H81.3049C81.0149 16.686 80.7879 16.458 80.7879 16.197V1.414C80.8048 1.27979 80.8697 1.15624 80.9706 1.06617C81.0715 0.976097 81.2016 0.925597 81.3369 0.924H83.9839C84.2419 0.924 84.4359 1.12 84.4999 1.348V3.6H84.5649C85.3719 1.577 86.4699 0.63 88.4389 0.63C89.6979 0.63 90.9569 1.087 91.7639 2.36C92.5049 3.535 92.5049 5.526 92.5049 6.962V16.262C92.4729 16.523 92.2469 16.719 91.9559 16.719H89.1159C88.8569 16.686 88.6309 16.491 88.5989 16.262V8.234C88.5989 6.603 88.7929 4.253 86.8239 4.253C86.1459 4.253 85.4999 4.71 85.1769 5.428C84.7899 6.341 84.7249 7.223 84.7249 8.234V16.197C84.7077 16.3395 84.6395 16.4709 84.5328 16.5668C84.4262 16.6628 84.2883 16.7169 84.1449 16.719ZM49.0879 16.686C48.9964 16.767 48.8817 16.817 48.7601 16.8289C48.6385 16.8407 48.5162 16.8138 48.4109 16.752C47.4739 15.969 47.2809 15.577 46.7639 14.826C45.2139 16.426 44.0849 16.915 42.0839 16.915C39.6939 16.915 37.8219 15.414 37.8219 12.445C37.8219 10.095 39.0819 8.528 40.8569 7.745C42.4069 7.059 44.5689 6.929 46.2149 6.733V6.374C46.2149 5.689 46.2799 4.873 45.8599 4.286C45.5049 3.763 44.8599 3.535 44.2789 3.535C43.1809 3.535 42.2129 4.09 41.9869 5.265C41.9219 5.525 41.7609 5.787 41.5019 5.787L38.7589 5.493C38.5329 5.428 38.2739 5.265 38.3389 4.906C38.9839 1.512 41.9859 0.5 44.6979 0.5C46.0849 0.5 47.8929 0.859 48.9909 1.936C50.3789 3.241 50.2499 5.003 50.2499 6.896V11.367C50.2499 12.705 50.7979 13.293 51.3149 14.043C51.5089 14.304 51.5409 14.631 51.3149 14.793C50.7009 15.283 49.6699 16.197 49.0879 16.686ZM11.7719 16.686C11.6803 16.7672 11.5654 16.8174 11.4436 16.8293C11.3218 16.8411 11.1993 16.8141 11.0939 16.752C10.1579 15.969 9.96386 15.577 9.44786 14.826C7.89786 16.426 6.76786 16.915 4.76786 16.915C2.37786 16.915 0.505859 15.414 0.505859 12.445C0.505859 10.095 1.76486 8.528 3.53986 7.745C5.08986 7.059 7.25286 6.929 8.89886 6.733V6.374C8.89886 5.689 8.96386 4.873 8.54386 4.286C8.18886 3.763 7.54386 3.535 6.96186 3.535C5.86486 3.535 4.89586 4.09 4.66986 5.265C4.60586 5.525 4.44386 5.787 4.18586 5.787L1.44086 5.493C1.21486 5.428 0.956859 5.265 1.02086 4.906C1.66686 1.512 4.66886 0.5 7.38086 0.5C8.76886 0.5 10.5769 0.859 11.6739 1.936C13.0619 3.241 12.9339 5.003 12.9339 6.896V11.367C12.9339 12.705 13.4819 13.293 13.9979 14.043C14.1919 14.304 14.2239 14.631 13.9979 14.793C13.3849 15.283 12.3519 16.197 11.7709 16.686H11.7719ZM46.2139 9.67V9.05C44.1489 9.05 41.9859 9.507 41.9859 11.955C41.9859 13.195 42.6309 14.043 43.7289 14.043C44.5359 14.043 45.2459 13.553 45.6979 12.738C46.2469 11.726 46.2139 10.78 46.2139 9.67ZM8.92986 9.67V9.05C6.86386 9.05 4.70086 9.507 4.70086 11.955C4.70086 13.195 5.34686 14.043 6.44486 14.043C7.25186 14.043 7.96186 13.553 8.41386 12.738C8.96286 11.726 8.92986 10.78 8.92986 9.67Z" fill="#CBD5E1"/>
</g>
<defs>
<clipPath id="clip0_69_11449">
<rect width="92" height="28" fill="white" transform="translate(0.503906 0.5)"/>
</clipPath>
</defs>
</svg>
