<svg width="1170" height="364" viewBox="0 0 1170 364" fill="none" xmlns="http://www.w3.org/2000/svg">
<g opacity="0.2">
<path fill-rule="evenodd" clip-rule="evenodd" d="M-426.377 514L-426.377 0L-425.559 3.56634e-08L-425.559 514H-426.377Z" fill="url(#paint0_linear_94_12720)"/>
<path fill-rule="evenodd" clip-rule="evenodd" d="M-399.395 514L-399.395 0L-398.578 3.56634e-08L-398.578 514H-399.395Z" fill="url(#paint1_linear_94_12720)"/>
<path fill-rule="evenodd" clip-rule="evenodd" d="M-372.414 514L-372.414 0L-371.596 3.56634e-08L-371.596 514H-372.414Z" fill="url(#paint2_linear_94_12720)"/>
<path fill-rule="evenodd" clip-rule="evenodd" d="M-345.432 514L-345.432 0L-344.614 3.56634e-08L-344.615 514H-345.432Z" fill="url(#paint3_linear_94_12720)"/>
<path fill-rule="evenodd" clip-rule="evenodd" d="M-318.451 514L-318.45 0L-317.633 3.56634e-08L-317.633 514H-318.451Z" fill="url(#paint4_linear_94_12720)"/>
<path fill-rule="evenodd" clip-rule="evenodd" d="M-291.469 514L-291.469 0L-290.651 3.56634e-08L-290.651 514H-291.469Z" fill="url(#paint5_linear_94_12720)"/>
<path fill-rule="evenodd" clip-rule="evenodd" d="M-264.487 514L-264.487 0L-263.67 3.56634e-08L-263.67 514H-264.487Z" fill="url(#paint6_linear_94_12720)"/>
<path fill-rule="evenodd" clip-rule="evenodd" d="M-237.506 514L-237.506 0L-236.688 3.56634e-08L-236.688 514H-237.506Z" fill="url(#paint7_linear_94_12720)"/>
<path fill-rule="evenodd" clip-rule="evenodd" d="M-210.524 514L-210.524 0L-209.706 3.56634e-08L-209.706 514H-210.524Z" fill="url(#paint8_linear_94_12720)"/>
<path fill-rule="evenodd" clip-rule="evenodd" d="M-183.542 514L-183.542 0L-182.725 3.56634e-08L-182.725 514H-183.542Z" fill="url(#paint9_linear_94_12720)"/>
<path fill-rule="evenodd" clip-rule="evenodd" d="M-156.561 514L-156.561 0L-155.743 3.56634e-08L-155.743 514H-156.561Z" fill="url(#paint10_linear_94_12720)"/>
<path fill-rule="evenodd" clip-rule="evenodd" d="M-129.579 514L-129.579 0L-128.761 3.56634e-08L-128.762 514H-129.579Z" fill="url(#paint11_linear_94_12720)"/>
<path fill-rule="evenodd" clip-rule="evenodd" d="M-102.598 514L-102.597 0L-101.78 3.56634e-08L-101.78 514H-102.598Z" fill="url(#paint12_linear_94_12720)"/>
<path fill-rule="evenodd" clip-rule="evenodd" d="M-75.6159 514V0L-74.7983 3.56634e-08V514H-75.6159Z" fill="url(#paint13_linear_94_12720)"/>
<path fill-rule="evenodd" clip-rule="evenodd" d="M-48.6342 514V0L-47.8166 3.56634e-08L-47.8167 514H-48.6342Z" fill="url(#paint14_linear_94_12720)"/>
<path fill-rule="evenodd" clip-rule="evenodd" d="M-21.6526 514V0L-20.835 3.56634e-08V514H-21.6526Z" fill="url(#paint15_linear_94_12720)"/>
<path fill-rule="evenodd" clip-rule="evenodd" d="M5.32895 514L5.32901 0L6.14664 3.56634e-08L6.14658 514H5.32895Z" fill="url(#paint16_linear_94_12720)"/>
<path fill-rule="evenodd" clip-rule="evenodd" d="M32.3105 514L32.3106 0L33.1282 3.56634e-08L33.1282 514H32.3105Z" fill="url(#paint17_linear_94_12720)"/>
<path fill-rule="evenodd" clip-rule="evenodd" d="M59.2922 514L59.2922 0L60.1098 3.56634e-08L60.1098 514H59.2922Z" fill="url(#paint18_linear_94_12720)"/>
<path fill-rule="evenodd" clip-rule="evenodd" d="M86.2737 514L86.2738 0L87.0914 3.56634e-08L87.0914 514H86.2737Z" fill="url(#paint19_linear_94_12720)"/>
<path fill-rule="evenodd" clip-rule="evenodd" d="M113.255 514V0L114.073 3.56634e-08V514H113.255Z" fill="url(#paint20_linear_94_12720)"/>
<path fill-rule="evenodd" clip-rule="evenodd" d="M140.237 514L140.237 0L141.055 3.56634e-08L141.055 514H140.237Z" fill="url(#paint21_linear_94_12720)"/>
<path fill-rule="evenodd" clip-rule="evenodd" d="M167.219 514L167.219 0L168.036 3.56634e-08L168.036 514H167.219Z" fill="url(#paint22_linear_94_12720)"/>
<path fill-rule="evenodd" clip-rule="evenodd" d="M194.2 514V0L195.018 3.56634e-08V514H194.2Z" fill="url(#paint23_linear_94_12720)"/>
<path fill-rule="evenodd" clip-rule="evenodd" d="M221.182 514L221.182 0L221.999 3.56634e-08L221.999 514H221.182Z" fill="url(#paint24_linear_94_12720)"/>
<path fill-rule="evenodd" clip-rule="evenodd" d="M248.163 514L248.163 0L248.981 3.56634e-08L248.981 514H248.163Z" fill="url(#paint25_linear_94_12720)"/>
<path fill-rule="evenodd" clip-rule="evenodd" d="M275.145 514L275.145 0L275.963 3.56634e-08L275.963 514H275.145Z" fill="url(#paint26_linear_94_12720)"/>
<path fill-rule="evenodd" clip-rule="evenodd" d="M302.127 514V0L302.944 3.56634e-08V514H302.127Z" fill="url(#paint27_linear_94_12720)"/>
<path fill-rule="evenodd" clip-rule="evenodd" d="M329.108 514V0L329.926 3.56634e-08V514H329.108Z" fill="url(#paint28_linear_94_12720)"/>
<path fill-rule="evenodd" clip-rule="evenodd" d="M356.09 514V0L356.907 3.56634e-08V514H356.09Z" fill="url(#paint29_linear_94_12720)"/>
<path fill-rule="evenodd" clip-rule="evenodd" d="M383.071 514V0L383.889 3.56634e-08V514H383.071Z" fill="url(#paint30_linear_94_12720)"/>
<path fill-rule="evenodd" clip-rule="evenodd" d="M410.053 514V0L410.871 3.56634e-08V514H410.053Z" fill="url(#paint31_linear_94_12720)"/>
<path fill-rule="evenodd" clip-rule="evenodd" d="M437.035 514V0L437.852 3.56634e-08V514H437.035Z" fill="url(#paint32_linear_94_12720)"/>
<path fill-rule="evenodd" clip-rule="evenodd" d="M464.016 514V0L464.834 3.56634e-08V514H464.016Z" fill="url(#paint33_linear_94_12720)"/>
<path fill-rule="evenodd" clip-rule="evenodd" d="M490.998 514V0L491.815 3.56634e-08V514H490.998Z" fill="url(#paint34_linear_94_12720)"/>
<path fill-rule="evenodd" clip-rule="evenodd" d="M517.979 514V0L518.797 3.56634e-08V514H517.979Z" fill="url(#paint35_linear_94_12720)"/>
<path fill-rule="evenodd" clip-rule="evenodd" d="M544.961 514V0L545.779 3.56634e-08V514H544.961Z" fill="url(#paint36_linear_94_12720)"/>
<path fill-rule="evenodd" clip-rule="evenodd" d="M571.943 514V0L572.76 3.56634e-08V514H571.943Z" fill="url(#paint37_linear_94_12720)"/>
<path fill-rule="evenodd" clip-rule="evenodd" d="M598.924 514V0L599.742 3.56634e-08V514H598.924Z" fill="url(#paint38_linear_94_12720)"/>
<path fill-rule="evenodd" clip-rule="evenodd" d="M625.906 514V0L626.723 3.56634e-08V514H625.906Z" fill="url(#paint39_linear_94_12720)"/>
<path fill-rule="evenodd" clip-rule="evenodd" d="M652.887 514V0L653.705 3.56634e-08V514H652.887Z" fill="url(#paint40_linear_94_12720)"/>
<path fill-rule="evenodd" clip-rule="evenodd" d="M671.692 499.315H-446V498.499H671.692V499.315Z" fill="url(#paint41_linear_94_12720)"/>
<path fill-rule="evenodd" clip-rule="evenodd" d="M671.692 472.391H-446V471.575H671.692V472.391Z" fill="url(#paint42_linear_94_12720)"/>
<path fill-rule="evenodd" clip-rule="evenodd" d="M671.692 445.467H-446V444.651H671.692V445.467Z" fill="url(#paint43_linear_94_12720)"/>
<path fill-rule="evenodd" clip-rule="evenodd" d="M671.692 418.543H-446V417.727H671.692V418.543Z" fill="url(#paint44_linear_94_12720)"/>
<path fill-rule="evenodd" clip-rule="evenodd" d="M671.692 391.619H-446V390.804H671.692V391.619Z" fill="url(#paint45_linear_94_12720)"/>
<path fill-rule="evenodd" clip-rule="evenodd" d="M671.692 364.696H-446V363.88H671.692V364.696Z" fill="url(#paint46_linear_94_12720)"/>
<path fill-rule="evenodd" clip-rule="evenodd" d="M671.692 337.772H-446V336.956H671.692V337.772Z" fill="url(#paint47_linear_94_12720)"/>
<path fill-rule="evenodd" clip-rule="evenodd" d="M671.692 310.848H-446V310.032H671.692V310.848Z" fill="url(#paint48_linear_94_12720)"/>
<path fill-rule="evenodd" clip-rule="evenodd" d="M671.692 283.924H-446V283.108H671.692V283.924Z" fill="url(#paint49_linear_94_12720)"/>
<path fill-rule="evenodd" clip-rule="evenodd" d="M671.692 257H-446V256.184H671.692V257Z" fill="url(#paint50_linear_94_12720)"/>
<path fill-rule="evenodd" clip-rule="evenodd" d="M671.692 230.076H-446V229.26H671.692V230.076Z" fill="url(#paint51_linear_94_12720)"/>
<path fill-rule="evenodd" clip-rule="evenodd" d="M671.692 203.152H-446V202.337H671.692V203.152Z" fill="url(#paint52_linear_94_12720)"/>
<path fill-rule="evenodd" clip-rule="evenodd" d="M671.692 176.229H-446V175.413H671.692V176.229Z" fill="url(#paint53_linear_94_12720)"/>
<path fill-rule="evenodd" clip-rule="evenodd" d="M671.692 149.305H-446V148.489H671.692V149.305Z" fill="url(#paint54_linear_94_12720)"/>
<path fill-rule="evenodd" clip-rule="evenodd" d="M671.692 122.381H-446V121.565H671.692V122.381Z" fill="url(#paint55_linear_94_12720)"/>
<path fill-rule="evenodd" clip-rule="evenodd" d="M671.692 95.4571H-446V94.6413H671.692V95.4571Z" fill="url(#paint56_linear_94_12720)"/>
<path fill-rule="evenodd" clip-rule="evenodd" d="M671.692 68.5333H-446V67.7175H671.692V68.5333Z" fill="url(#paint57_linear_94_12720)"/>
<path fill-rule="evenodd" clip-rule="evenodd" d="M671.692 41.6095H-446V40.7937H671.692V41.6095Z" fill="url(#paint58_linear_94_12720)"/>
<path fill-rule="evenodd" clip-rule="evenodd" d="M671.692 14.6853H-446V13.8694H671.692V14.6853Z" fill="url(#paint59_linear_94_12720)"/>
<path fill-rule="evenodd" clip-rule="evenodd" d="M517.931 514V0L518.748 3.56634e-08V514H517.931Z" fill="url(#paint60_linear_94_12720)"/>
<path fill-rule="evenodd" clip-rule="evenodd" d="M544.912 514L544.912 0L545.73 3.56634e-08L545.73 514H544.912Z" fill="url(#paint61_linear_94_12720)"/>
<path fill-rule="evenodd" clip-rule="evenodd" d="M571.894 514V0L572.711 3.56634e-08V514H571.894Z" fill="url(#paint62_linear_94_12720)"/>
<path fill-rule="evenodd" clip-rule="evenodd" d="M598.875 514V0L599.693 3.56634e-08V514H598.875Z" fill="url(#paint63_linear_94_12720)"/>
<path fill-rule="evenodd" clip-rule="evenodd" d="M625.857 514L625.857 0L626.675 3.56634e-08L626.675 514H625.857Z" fill="url(#paint64_linear_94_12720)"/>
<path fill-rule="evenodd" clip-rule="evenodd" d="M652.839 514V0L653.656 3.56634e-08V514H652.839Z" fill="url(#paint65_linear_94_12720)"/>
<path fill-rule="evenodd" clip-rule="evenodd" d="M679.82 514L679.82 0L680.638 3.56634e-08L680.638 514H679.82Z" fill="url(#paint66_linear_94_12720)"/>
<path fill-rule="evenodd" clip-rule="evenodd" d="M706.802 514L706.802 0L707.62 3.56634e-08L707.62 514H706.802Z" fill="url(#paint67_linear_94_12720)"/>
<path fill-rule="evenodd" clip-rule="evenodd" d="M733.784 514V0L734.601 3.56634e-08V514H733.784Z" fill="url(#paint68_linear_94_12720)"/>
<path fill-rule="evenodd" clip-rule="evenodd" d="M760.765 514V0L761.583 3.56634e-08V514H760.765Z" fill="url(#paint69_linear_94_12720)"/>
<path fill-rule="evenodd" clip-rule="evenodd" d="M787.747 514L787.747 0L788.564 3.56634e-08L788.564 514H787.747Z" fill="url(#paint70_linear_94_12720)"/>
<path fill-rule="evenodd" clip-rule="evenodd" d="M814.728 514V0L815.546 3.56634e-08V514H814.728Z" fill="url(#paint71_linear_94_12720)"/>
<path fill-rule="evenodd" clip-rule="evenodd" d="M841.71 514V0L842.528 3.56634e-08V514H841.71Z" fill="url(#paint72_linear_94_12720)"/>
<path fill-rule="evenodd" clip-rule="evenodd" d="M868.692 514V0L869.509 3.56634e-08V514H868.692Z" fill="url(#paint73_linear_94_12720)"/>
<path fill-rule="evenodd" clip-rule="evenodd" d="M895.673 514V0L896.491 3.56634e-08V514H895.673Z" fill="url(#paint74_linear_94_12720)"/>
<path fill-rule="evenodd" clip-rule="evenodd" d="M922.655 514V0L923.473 3.56634e-08V514H922.655Z" fill="url(#paint75_linear_94_12720)"/>
<path fill-rule="evenodd" clip-rule="evenodd" d="M949.636 514V0L950.454 3.56634e-08V514H949.636Z" fill="url(#paint76_linear_94_12720)"/>
<path fill-rule="evenodd" clip-rule="evenodd" d="M976.618 514V0L977.436 3.56634e-08V514H976.618Z" fill="url(#paint77_linear_94_12720)"/>
<path fill-rule="evenodd" clip-rule="evenodd" d="M1003.6 514L1003.6 0L1004.42 3.56634e-08V514H1003.6Z" fill="url(#paint78_linear_94_12720)"/>
<path fill-rule="evenodd" clip-rule="evenodd" d="M1030.58 514L1030.58 0L1031.4 3.56634e-08L1031.4 514H1030.58Z" fill="url(#paint79_linear_94_12720)"/>
<path fill-rule="evenodd" clip-rule="evenodd" d="M1057.56 514L1057.56 0L1058.38 3.56634e-08L1058.38 514H1057.56Z" fill="url(#paint80_linear_94_12720)"/>
<path fill-rule="evenodd" clip-rule="evenodd" d="M1084.54 514V0L1085.36 3.56634e-08V514H1084.54Z" fill="url(#paint81_linear_94_12720)"/>
<path fill-rule="evenodd" clip-rule="evenodd" d="M1111.53 514V0L1112.34 3.56634e-08V514H1111.53Z" fill="url(#paint82_linear_94_12720)"/>
<path fill-rule="evenodd" clip-rule="evenodd" d="M1138.51 514V0L1139.33 3.56634e-08V514H1138.51Z" fill="url(#paint83_linear_94_12720)"/>
<path fill-rule="evenodd" clip-rule="evenodd" d="M1165.49 514V0L1166.31 3.56634e-08V514H1165.49Z" fill="url(#paint84_linear_94_12720)"/>
<path fill-rule="evenodd" clip-rule="evenodd" d="M1192.47 514V0L1193.29 3.56634e-08V514H1192.47Z" fill="url(#paint85_linear_94_12720)"/>
<path fill-rule="evenodd" clip-rule="evenodd" d="M1219.45 514L1219.45 0L1220.27 3.56634e-08L1220.27 514H1219.45Z" fill="url(#paint86_linear_94_12720)"/>
<path fill-rule="evenodd" clip-rule="evenodd" d="M1246.43 514L1246.43 0L1247.25 3.56634e-08L1247.25 514H1246.43Z" fill="url(#paint87_linear_94_12720)"/>
<path fill-rule="evenodd" clip-rule="evenodd" d="M1273.42 514V0L1274.23 3.56634e-08V514H1273.42Z" fill="url(#paint88_linear_94_12720)"/>
<path fill-rule="evenodd" clip-rule="evenodd" d="M1300.4 514V0L1301.21 3.56634e-08V514H1300.4Z" fill="url(#paint89_linear_94_12720)"/>
<path fill-rule="evenodd" clip-rule="evenodd" d="M1327.38 514V0L1328.2 3.56634e-08V514H1327.38Z" fill="url(#paint90_linear_94_12720)"/>
<path fill-rule="evenodd" clip-rule="evenodd" d="M1354.36 514V0L1355.18 3.56634e-08V514H1354.36Z" fill="url(#paint91_linear_94_12720)"/>
<path fill-rule="evenodd" clip-rule="evenodd" d="M1381.34 514V0L1382.16 3.56634e-08V514H1381.34Z" fill="url(#paint92_linear_94_12720)"/>
<path fill-rule="evenodd" clip-rule="evenodd" d="M1408.32 514V0L1409.14 3.56634e-08V514H1408.32Z" fill="url(#paint93_linear_94_12720)"/>
<path fill-rule="evenodd" clip-rule="evenodd" d="M1435.31 514V0L1436.12 3.56634e-08V514H1435.31Z" fill="url(#paint94_linear_94_12720)"/>
<path fill-rule="evenodd" clip-rule="evenodd" d="M1462.29 514V0L1463.1 3.56634e-08V514H1462.29Z" fill="url(#paint95_linear_94_12720)"/>
<path fill-rule="evenodd" clip-rule="evenodd" d="M1489.27 514V0L1490.09 3.56634e-08V514H1489.27Z" fill="url(#paint96_linear_94_12720)"/>
<path fill-rule="evenodd" clip-rule="evenodd" d="M1516.25 514V0L1517.07 3.56634e-08V514H1516.25Z" fill="url(#paint97_linear_94_12720)"/>
<path fill-rule="evenodd" clip-rule="evenodd" d="M1543.23 514V0L1544.05 3.56634e-08V514H1543.23Z" fill="url(#paint98_linear_94_12720)"/>
<path fill-rule="evenodd" clip-rule="evenodd" d="M1570.21 514V0L1571.03 3.56634e-08V514H1570.21Z" fill="url(#paint99_linear_94_12720)"/>
<path fill-rule="evenodd" clip-rule="evenodd" d="M1597.19 514V0L1598.01 3.56634e-08V514H1597.19Z" fill="url(#paint100_linear_94_12720)"/>
<path fill-rule="evenodd" clip-rule="evenodd" d="M1616 499.315H498.307V498.499H1616V499.315Z" fill="url(#paint101_linear_94_12720)"/>
<path fill-rule="evenodd" clip-rule="evenodd" d="M1616 472.391H498.307V471.575H1616V472.391Z" fill="url(#paint102_linear_94_12720)"/>
<path fill-rule="evenodd" clip-rule="evenodd" d="M1616 445.467H498.307V444.651H1616V445.467Z" fill="url(#paint103_linear_94_12720)"/>
<path fill-rule="evenodd" clip-rule="evenodd" d="M1616 418.543H498.307V417.727H1616V418.543Z" fill="url(#paint104_linear_94_12720)"/>
<path fill-rule="evenodd" clip-rule="evenodd" d="M1616 391.619H498.307V390.804H1616V391.619Z" fill="url(#paint105_linear_94_12720)"/>
<path fill-rule="evenodd" clip-rule="evenodd" d="M1616 364.696H498.307V363.88H1616V364.696Z" fill="url(#paint106_linear_94_12720)"/>
<path fill-rule="evenodd" clip-rule="evenodd" d="M1616 337.772H498.307V336.956H1616V337.772Z" fill="url(#paint107_linear_94_12720)"/>
<path fill-rule="evenodd" clip-rule="evenodd" d="M1616 310.848H498.307V310.032H1616V310.848Z" fill="url(#paint108_linear_94_12720)"/>
<path fill-rule="evenodd" clip-rule="evenodd" d="M1616 283.924H498.307V283.108H1616V283.924Z" fill="url(#paint109_linear_94_12720)"/>
<path fill-rule="evenodd" clip-rule="evenodd" d="M1616 257H498.307V256.184H1616V257Z" fill="url(#paint110_linear_94_12720)"/>
<path fill-rule="evenodd" clip-rule="evenodd" d="M1616 230.076H498.307V229.26H1616V230.076Z" fill="url(#paint111_linear_94_12720)"/>
<path fill-rule="evenodd" clip-rule="evenodd" d="M1616 203.152H498.307V202.337H1616V203.152Z" fill="url(#paint112_linear_94_12720)"/>
<path fill-rule="evenodd" clip-rule="evenodd" d="M1616 176.229H498.307V175.413H1616V176.229Z" fill="url(#paint113_linear_94_12720)"/>
<path fill-rule="evenodd" clip-rule="evenodd" d="M1616 149.305H498.307V148.489H1616V149.305Z" fill="url(#paint114_linear_94_12720)"/>
<path fill-rule="evenodd" clip-rule="evenodd" d="M1616 122.381H498.307V121.565H1616V122.381Z" fill="url(#paint115_linear_94_12720)"/>
<path fill-rule="evenodd" clip-rule="evenodd" d="M1616 95.4571H498.307V94.6413H1616V95.4571Z" fill="url(#paint116_linear_94_12720)"/>
<path fill-rule="evenodd" clip-rule="evenodd" d="M1616 68.5333H498.307V67.7175H1616V68.5333Z" fill="url(#paint117_linear_94_12720)"/>
<path fill-rule="evenodd" clip-rule="evenodd" d="M1616 41.6095H498.307V40.7937H1616V41.6095Z" fill="url(#paint118_linear_94_12720)"/>
<path fill-rule="evenodd" clip-rule="evenodd" d="M1616 14.6853H498.307V13.8694H1616V14.6853Z" fill="url(#paint119_linear_94_12720)"/>
</g>
<defs>
<linearGradient id="paint0_linear_94_12720" x1="585.064" y1="218.141" x2="585.064" y2="514" gradientUnits="userSpaceOnUse">
<stop stop-color="white" stop-opacity="0"/>
<stop offset="1" stop-color="white" stop-opacity="0.65"/>
</linearGradient>
<linearGradient id="paint1_linear_94_12720" x1="585.064" y1="218.141" x2="585.064" y2="514" gradientUnits="userSpaceOnUse">
<stop stop-color="white" stop-opacity="0"/>
<stop offset="1" stop-color="white" stop-opacity="0.65"/>
</linearGradient>
<linearGradient id="paint2_linear_94_12720" x1="585.064" y1="218.141" x2="585.064" y2="514" gradientUnits="userSpaceOnUse">
<stop stop-color="white" stop-opacity="0"/>
<stop offset="1" stop-color="white" stop-opacity="0.65"/>
</linearGradient>
<linearGradient id="paint3_linear_94_12720" x1="585.064" y1="218.141" x2="585.064" y2="514" gradientUnits="userSpaceOnUse">
<stop stop-color="white" stop-opacity="0"/>
<stop offset="1" stop-color="white" stop-opacity="0.65"/>
</linearGradient>
<linearGradient id="paint4_linear_94_12720" x1="585.064" y1="218.141" x2="585.064" y2="514" gradientUnits="userSpaceOnUse">
<stop stop-color="white" stop-opacity="0"/>
<stop offset="1" stop-color="white" stop-opacity="0.65"/>
</linearGradient>
<linearGradient id="paint5_linear_94_12720" x1="585.064" y1="218.141" x2="585.064" y2="514" gradientUnits="userSpaceOnUse">
<stop stop-color="white" stop-opacity="0"/>
<stop offset="1" stop-color="white" stop-opacity="0.65"/>
</linearGradient>
<linearGradient id="paint6_linear_94_12720" x1="585.064" y1="218.141" x2="585.064" y2="514" gradientUnits="userSpaceOnUse">
<stop stop-color="white" stop-opacity="0"/>
<stop offset="1" stop-color="white" stop-opacity="0.65"/>
</linearGradient>
<linearGradient id="paint7_linear_94_12720" x1="585.064" y1="218.141" x2="585.064" y2="514" gradientUnits="userSpaceOnUse">
<stop stop-color="white" stop-opacity="0"/>
<stop offset="1" stop-color="white" stop-opacity="0.65"/>
</linearGradient>
<linearGradient id="paint8_linear_94_12720" x1="585.064" y1="218.141" x2="585.064" y2="514" gradientUnits="userSpaceOnUse">
<stop stop-color="white" stop-opacity="0"/>
<stop offset="1" stop-color="white" stop-opacity="0.65"/>
</linearGradient>
<linearGradient id="paint9_linear_94_12720" x1="585.064" y1="218.141" x2="585.064" y2="514" gradientUnits="userSpaceOnUse">
<stop stop-color="white" stop-opacity="0"/>
<stop offset="1" stop-color="white" stop-opacity="0.65"/>
</linearGradient>
<linearGradient id="paint10_linear_94_12720" x1="585.064" y1="218.141" x2="585.064" y2="514" gradientUnits="userSpaceOnUse">
<stop stop-color="white" stop-opacity="0"/>
<stop offset="1" stop-color="white" stop-opacity="0.65"/>
</linearGradient>
<linearGradient id="paint11_linear_94_12720" x1="585.064" y1="218.141" x2="585.064" y2="514" gradientUnits="userSpaceOnUse">
<stop stop-color="white" stop-opacity="0"/>
<stop offset="1" stop-color="white" stop-opacity="0.65"/>
</linearGradient>
<linearGradient id="paint12_linear_94_12720" x1="585.064" y1="218.141" x2="585.064" y2="514" gradientUnits="userSpaceOnUse">
<stop stop-color="white" stop-opacity="0"/>
<stop offset="1" stop-color="white" stop-opacity="0.65"/>
</linearGradient>
<linearGradient id="paint13_linear_94_12720" x1="585.064" y1="218.141" x2="585.064" y2="514" gradientUnits="userSpaceOnUse">
<stop stop-color="white" stop-opacity="0"/>
<stop offset="1" stop-color="white" stop-opacity="0.65"/>
</linearGradient>
<linearGradient id="paint14_linear_94_12720" x1="585.064" y1="218.141" x2="585.064" y2="514" gradientUnits="userSpaceOnUse">
<stop stop-color="white" stop-opacity="0"/>
<stop offset="1" stop-color="white" stop-opacity="0.65"/>
</linearGradient>
<linearGradient id="paint15_linear_94_12720" x1="585.064" y1="218.141" x2="585.064" y2="514" gradientUnits="userSpaceOnUse">
<stop stop-color="white" stop-opacity="0"/>
<stop offset="1" stop-color="white" stop-opacity="0.65"/>
</linearGradient>
<linearGradient id="paint16_linear_94_12720" x1="585.064" y1="218.141" x2="585.064" y2="514" gradientUnits="userSpaceOnUse">
<stop stop-color="white" stop-opacity="0"/>
<stop offset="1" stop-color="white" stop-opacity="0.65"/>
</linearGradient>
<linearGradient id="paint17_linear_94_12720" x1="585.064" y1="218.141" x2="585.064" y2="514" gradientUnits="userSpaceOnUse">
<stop stop-color="white" stop-opacity="0"/>
<stop offset="1" stop-color="white" stop-opacity="0.65"/>
</linearGradient>
<linearGradient id="paint18_linear_94_12720" x1="585.064" y1="218.141" x2="585.064" y2="514" gradientUnits="userSpaceOnUse">
<stop stop-color="white" stop-opacity="0"/>
<stop offset="1" stop-color="white" stop-opacity="0.65"/>
</linearGradient>
<linearGradient id="paint19_linear_94_12720" x1="585.064" y1="218.141" x2="585.064" y2="514" gradientUnits="userSpaceOnUse">
<stop stop-color="white" stop-opacity="0"/>
<stop offset="1" stop-color="white" stop-opacity="0.65"/>
</linearGradient>
<linearGradient id="paint20_linear_94_12720" x1="585.064" y1="218.141" x2="585.064" y2="514" gradientUnits="userSpaceOnUse">
<stop stop-color="white" stop-opacity="0"/>
<stop offset="1" stop-color="white" stop-opacity="0.65"/>
</linearGradient>
<linearGradient id="paint21_linear_94_12720" x1="585.064" y1="218.141" x2="585.064" y2="514" gradientUnits="userSpaceOnUse">
<stop stop-color="white" stop-opacity="0"/>
<stop offset="1" stop-color="white" stop-opacity="0.65"/>
</linearGradient>
<linearGradient id="paint22_linear_94_12720" x1="585.064" y1="218.141" x2="585.064" y2="514" gradientUnits="userSpaceOnUse">
<stop stop-color="white" stop-opacity="0"/>
<stop offset="1" stop-color="white" stop-opacity="0.65"/>
</linearGradient>
<linearGradient id="paint23_linear_94_12720" x1="585.064" y1="218.141" x2="585.064" y2="514" gradientUnits="userSpaceOnUse">
<stop stop-color="white" stop-opacity="0"/>
<stop offset="1" stop-color="white" stop-opacity="0.65"/>
</linearGradient>
<linearGradient id="paint24_linear_94_12720" x1="585.064" y1="218.141" x2="585.064" y2="514" gradientUnits="userSpaceOnUse">
<stop stop-color="white" stop-opacity="0"/>
<stop offset="1" stop-color="white" stop-opacity="0.65"/>
</linearGradient>
<linearGradient id="paint25_linear_94_12720" x1="585.064" y1="218.141" x2="585.064" y2="514" gradientUnits="userSpaceOnUse">
<stop stop-color="white" stop-opacity="0"/>
<stop offset="1" stop-color="white" stop-opacity="0.65"/>
</linearGradient>
<linearGradient id="paint26_linear_94_12720" x1="585.064" y1="218.141" x2="585.064" y2="514" gradientUnits="userSpaceOnUse">
<stop stop-color="white" stop-opacity="0"/>
<stop offset="1" stop-color="white" stop-opacity="0.65"/>
</linearGradient>
<linearGradient id="paint27_linear_94_12720" x1="585.064" y1="218.141" x2="585.064" y2="514" gradientUnits="userSpaceOnUse">
<stop stop-color="white" stop-opacity="0"/>
<stop offset="1" stop-color="white" stop-opacity="0.65"/>
</linearGradient>
<linearGradient id="paint28_linear_94_12720" x1="585.064" y1="218.141" x2="585.064" y2="514" gradientUnits="userSpaceOnUse">
<stop stop-color="white" stop-opacity="0"/>
<stop offset="1" stop-color="white" stop-opacity="0.65"/>
</linearGradient>
<linearGradient id="paint29_linear_94_12720" x1="585.064" y1="218.141" x2="585.064" y2="514" gradientUnits="userSpaceOnUse">
<stop stop-color="white" stop-opacity="0"/>
<stop offset="1" stop-color="white" stop-opacity="0.65"/>
</linearGradient>
<linearGradient id="paint30_linear_94_12720" x1="585.064" y1="218.141" x2="585.064" y2="514" gradientUnits="userSpaceOnUse">
<stop stop-color="white" stop-opacity="0"/>
<stop offset="1" stop-color="white" stop-opacity="0.65"/>
</linearGradient>
<linearGradient id="paint31_linear_94_12720" x1="585.064" y1="218.141" x2="585.064" y2="514" gradientUnits="userSpaceOnUse">
<stop stop-color="white" stop-opacity="0"/>
<stop offset="1" stop-color="white" stop-opacity="0.65"/>
</linearGradient>
<linearGradient id="paint32_linear_94_12720" x1="585.064" y1="218.141" x2="585.064" y2="514" gradientUnits="userSpaceOnUse">
<stop stop-color="white" stop-opacity="0"/>
<stop offset="1" stop-color="white" stop-opacity="0.65"/>
</linearGradient>
<linearGradient id="paint33_linear_94_12720" x1="585.064" y1="218.141" x2="585.064" y2="514" gradientUnits="userSpaceOnUse">
<stop stop-color="white" stop-opacity="0"/>
<stop offset="1" stop-color="white" stop-opacity="0.65"/>
</linearGradient>
<linearGradient id="paint34_linear_94_12720" x1="585.064" y1="218.141" x2="585.064" y2="514" gradientUnits="userSpaceOnUse">
<stop stop-color="white" stop-opacity="0"/>
<stop offset="1" stop-color="white" stop-opacity="0.65"/>
</linearGradient>
<linearGradient id="paint35_linear_94_12720" x1="585.064" y1="218.141" x2="585.064" y2="514" gradientUnits="userSpaceOnUse">
<stop stop-color="white" stop-opacity="0"/>
<stop offset="1" stop-color="white" stop-opacity="0.65"/>
</linearGradient>
<linearGradient id="paint36_linear_94_12720" x1="585.064" y1="218.141" x2="585.064" y2="514" gradientUnits="userSpaceOnUse">
<stop stop-color="white" stop-opacity="0"/>
<stop offset="1" stop-color="white" stop-opacity="0.65"/>
</linearGradient>
<linearGradient id="paint37_linear_94_12720" x1="585.064" y1="218.141" x2="585.064" y2="514" gradientUnits="userSpaceOnUse">
<stop stop-color="white" stop-opacity="0"/>
<stop offset="1" stop-color="white" stop-opacity="0.65"/>
</linearGradient>
<linearGradient id="paint38_linear_94_12720" x1="585.064" y1="218.141" x2="585.064" y2="514" gradientUnits="userSpaceOnUse">
<stop stop-color="white" stop-opacity="0"/>
<stop offset="1" stop-color="white" stop-opacity="0.65"/>
</linearGradient>
<linearGradient id="paint39_linear_94_12720" x1="585.064" y1="218.141" x2="585.064" y2="514" gradientUnits="userSpaceOnUse">
<stop stop-color="white" stop-opacity="0"/>
<stop offset="1" stop-color="white" stop-opacity="0.65"/>
</linearGradient>
<linearGradient id="paint40_linear_94_12720" x1="585.064" y1="218.141" x2="585.064" y2="514" gradientUnits="userSpaceOnUse">
<stop stop-color="white" stop-opacity="0"/>
<stop offset="1" stop-color="white" stop-opacity="0.65"/>
</linearGradient>
<linearGradient id="paint41_linear_94_12720" x1="585.064" y1="218.141" x2="585.064" y2="514" gradientUnits="userSpaceOnUse">
<stop stop-color="white" stop-opacity="0"/>
<stop offset="1" stop-color="white" stop-opacity="0.65"/>
</linearGradient>
<linearGradient id="paint42_linear_94_12720" x1="585.064" y1="218.141" x2="585.064" y2="514" gradientUnits="userSpaceOnUse">
<stop stop-color="white" stop-opacity="0"/>
<stop offset="1" stop-color="white" stop-opacity="0.65"/>
</linearGradient>
<linearGradient id="paint43_linear_94_12720" x1="585.064" y1="218.141" x2="585.064" y2="514" gradientUnits="userSpaceOnUse">
<stop stop-color="white" stop-opacity="0"/>
<stop offset="1" stop-color="white" stop-opacity="0.65"/>
</linearGradient>
<linearGradient id="paint44_linear_94_12720" x1="585.064" y1="218.141" x2="585.064" y2="514" gradientUnits="userSpaceOnUse">
<stop stop-color="white" stop-opacity="0"/>
<stop offset="1" stop-color="white" stop-opacity="0.65"/>
</linearGradient>
<linearGradient id="paint45_linear_94_12720" x1="585.064" y1="218.141" x2="585.064" y2="514" gradientUnits="userSpaceOnUse">
<stop stop-color="white" stop-opacity="0"/>
<stop offset="1" stop-color="white" stop-opacity="0.65"/>
</linearGradient>
<linearGradient id="paint46_linear_94_12720" x1="585.064" y1="218.141" x2="585.064" y2="514" gradientUnits="userSpaceOnUse">
<stop stop-color="white" stop-opacity="0"/>
<stop offset="1" stop-color="white" stop-opacity="0.65"/>
</linearGradient>
<linearGradient id="paint47_linear_94_12720" x1="585.064" y1="218.141" x2="585.064" y2="514" gradientUnits="userSpaceOnUse">
<stop stop-color="white" stop-opacity="0"/>
<stop offset="1" stop-color="white" stop-opacity="0.65"/>
</linearGradient>
<linearGradient id="paint48_linear_94_12720" x1="585.064" y1="218.141" x2="585.064" y2="514" gradientUnits="userSpaceOnUse">
<stop stop-color="white" stop-opacity="0"/>
<stop offset="1" stop-color="white" stop-opacity="0.65"/>
</linearGradient>
<linearGradient id="paint49_linear_94_12720" x1="585.064" y1="218.141" x2="585.064" y2="514" gradientUnits="userSpaceOnUse">
<stop stop-color="white" stop-opacity="0"/>
<stop offset="1" stop-color="white" stop-opacity="0.65"/>
</linearGradient>
<linearGradient id="paint50_linear_94_12720" x1="585.064" y1="218.141" x2="585.064" y2="514" gradientUnits="userSpaceOnUse">
<stop stop-color="white" stop-opacity="0"/>
<stop offset="1" stop-color="white" stop-opacity="0.65"/>
</linearGradient>
<linearGradient id="paint51_linear_94_12720" x1="585.064" y1="218.141" x2="585.064" y2="514" gradientUnits="userSpaceOnUse">
<stop stop-color="white" stop-opacity="0"/>
<stop offset="1" stop-color="white" stop-opacity="0.65"/>
</linearGradient>
<linearGradient id="paint52_linear_94_12720" x1="585.064" y1="218.141" x2="585.064" y2="514" gradientUnits="userSpaceOnUse">
<stop stop-color="white" stop-opacity="0"/>
<stop offset="1" stop-color="white" stop-opacity="0.65"/>
</linearGradient>
<linearGradient id="paint53_linear_94_12720" x1="585.064" y1="218.141" x2="585.064" y2="514" gradientUnits="userSpaceOnUse">
<stop stop-color="white" stop-opacity="0"/>
<stop offset="1" stop-color="white" stop-opacity="0.65"/>
</linearGradient>
<linearGradient id="paint54_linear_94_12720" x1="585.064" y1="218.141" x2="585.064" y2="514" gradientUnits="userSpaceOnUse">
<stop stop-color="white" stop-opacity="0"/>
<stop offset="1" stop-color="white" stop-opacity="0.65"/>
</linearGradient>
<linearGradient id="paint55_linear_94_12720" x1="585.064" y1="218.141" x2="585.064" y2="514" gradientUnits="userSpaceOnUse">
<stop stop-color="white" stop-opacity="0"/>
<stop offset="1" stop-color="white" stop-opacity="0.65"/>
</linearGradient>
<linearGradient id="paint56_linear_94_12720" x1="585.064" y1="218.141" x2="585.064" y2="514" gradientUnits="userSpaceOnUse">
<stop stop-color="white" stop-opacity="0"/>
<stop offset="1" stop-color="white" stop-opacity="0.65"/>
</linearGradient>
<linearGradient id="paint57_linear_94_12720" x1="585.064" y1="218.141" x2="585.064" y2="514" gradientUnits="userSpaceOnUse">
<stop stop-color="white" stop-opacity="0"/>
<stop offset="1" stop-color="white" stop-opacity="0.65"/>
</linearGradient>
<linearGradient id="paint58_linear_94_12720" x1="585.064" y1="218.141" x2="585.064" y2="514" gradientUnits="userSpaceOnUse">
<stop stop-color="white" stop-opacity="0"/>
<stop offset="1" stop-color="white" stop-opacity="0.65"/>
</linearGradient>
<linearGradient id="paint59_linear_94_12720" x1="585.064" y1="218.141" x2="585.064" y2="514" gradientUnits="userSpaceOnUse">
<stop stop-color="white" stop-opacity="0"/>
<stop offset="1" stop-color="white" stop-opacity="0.65"/>
</linearGradient>
<linearGradient id="paint60_linear_94_12720" x1="585.064" y1="218.141" x2="585.064" y2="514" gradientUnits="userSpaceOnUse">
<stop stop-color="white" stop-opacity="0"/>
<stop offset="1" stop-color="white" stop-opacity="0.65"/>
</linearGradient>
<linearGradient id="paint61_linear_94_12720" x1="585.064" y1="218.141" x2="585.064" y2="514" gradientUnits="userSpaceOnUse">
<stop stop-color="white" stop-opacity="0"/>
<stop offset="1" stop-color="white" stop-opacity="0.65"/>
</linearGradient>
<linearGradient id="paint62_linear_94_12720" x1="585.064" y1="218.141" x2="585.064" y2="514" gradientUnits="userSpaceOnUse">
<stop stop-color="white" stop-opacity="0"/>
<stop offset="1" stop-color="white" stop-opacity="0.65"/>
</linearGradient>
<linearGradient id="paint63_linear_94_12720" x1="585.064" y1="218.141" x2="585.064" y2="514" gradientUnits="userSpaceOnUse">
<stop stop-color="white" stop-opacity="0"/>
<stop offset="1" stop-color="white" stop-opacity="0.65"/>
</linearGradient>
<linearGradient id="paint64_linear_94_12720" x1="585.064" y1="218.141" x2="585.064" y2="514" gradientUnits="userSpaceOnUse">
<stop stop-color="white" stop-opacity="0"/>
<stop offset="1" stop-color="white" stop-opacity="0.65"/>
</linearGradient>
<linearGradient id="paint65_linear_94_12720" x1="585.064" y1="218.141" x2="585.064" y2="514" gradientUnits="userSpaceOnUse">
<stop stop-color="white" stop-opacity="0"/>
<stop offset="1" stop-color="white" stop-opacity="0.65"/>
</linearGradient>
<linearGradient id="paint66_linear_94_12720" x1="585.064" y1="218.141" x2="585.064" y2="514" gradientUnits="userSpaceOnUse">
<stop stop-color="white" stop-opacity="0"/>
<stop offset="1" stop-color="white" stop-opacity="0.65"/>
</linearGradient>
<linearGradient id="paint67_linear_94_12720" x1="585.064" y1="218.141" x2="585.064" y2="514" gradientUnits="userSpaceOnUse">
<stop stop-color="white" stop-opacity="0"/>
<stop offset="1" stop-color="white" stop-opacity="0.65"/>
</linearGradient>
<linearGradient id="paint68_linear_94_12720" x1="585.064" y1="218.141" x2="585.064" y2="514" gradientUnits="userSpaceOnUse">
<stop stop-color="white" stop-opacity="0"/>
<stop offset="1" stop-color="white" stop-opacity="0.65"/>
</linearGradient>
<linearGradient id="paint69_linear_94_12720" x1="585.064" y1="218.141" x2="585.064" y2="514" gradientUnits="userSpaceOnUse">
<stop stop-color="white" stop-opacity="0"/>
<stop offset="1" stop-color="white" stop-opacity="0.65"/>
</linearGradient>
<linearGradient id="paint70_linear_94_12720" x1="585.064" y1="218.141" x2="585.064" y2="514" gradientUnits="userSpaceOnUse">
<stop stop-color="white" stop-opacity="0"/>
<stop offset="1" stop-color="white" stop-opacity="0.65"/>
</linearGradient>
<linearGradient id="paint71_linear_94_12720" x1="585.064" y1="218.141" x2="585.064" y2="514" gradientUnits="userSpaceOnUse">
<stop stop-color="white" stop-opacity="0"/>
<stop offset="1" stop-color="white" stop-opacity="0.65"/>
</linearGradient>
<linearGradient id="paint72_linear_94_12720" x1="585.064" y1="218.141" x2="585.064" y2="514" gradientUnits="userSpaceOnUse">
<stop stop-color="white" stop-opacity="0"/>
<stop offset="1" stop-color="white" stop-opacity="0.65"/>
</linearGradient>
<linearGradient id="paint73_linear_94_12720" x1="585.064" y1="218.141" x2="585.064" y2="514" gradientUnits="userSpaceOnUse">
<stop stop-color="white" stop-opacity="0"/>
<stop offset="1" stop-color="white" stop-opacity="0.65"/>
</linearGradient>
<linearGradient id="paint74_linear_94_12720" x1="585.064" y1="218.141" x2="585.064" y2="514" gradientUnits="userSpaceOnUse">
<stop stop-color="white" stop-opacity="0"/>
<stop offset="1" stop-color="white" stop-opacity="0.65"/>
</linearGradient>
<linearGradient id="paint75_linear_94_12720" x1="585.064" y1="218.141" x2="585.064" y2="514" gradientUnits="userSpaceOnUse">
<stop stop-color="white" stop-opacity="0"/>
<stop offset="1" stop-color="white" stop-opacity="0.65"/>
</linearGradient>
<linearGradient id="paint76_linear_94_12720" x1="585.064" y1="218.141" x2="585.064" y2="514" gradientUnits="userSpaceOnUse">
<stop stop-color="white" stop-opacity="0"/>
<stop offset="1" stop-color="white" stop-opacity="0.65"/>
</linearGradient>
<linearGradient id="paint77_linear_94_12720" x1="585.064" y1="218.141" x2="585.064" y2="514" gradientUnits="userSpaceOnUse">
<stop stop-color="white" stop-opacity="0"/>
<stop offset="1" stop-color="white" stop-opacity="0.65"/>
</linearGradient>
<linearGradient id="paint78_linear_94_12720" x1="585.064" y1="218.141" x2="585.064" y2="514" gradientUnits="userSpaceOnUse">
<stop stop-color="white" stop-opacity="0"/>
<stop offset="1" stop-color="white" stop-opacity="0.65"/>
</linearGradient>
<linearGradient id="paint79_linear_94_12720" x1="585.064" y1="218.141" x2="585.064" y2="514" gradientUnits="userSpaceOnUse">
<stop stop-color="white" stop-opacity="0"/>
<stop offset="1" stop-color="white" stop-opacity="0.65"/>
</linearGradient>
<linearGradient id="paint80_linear_94_12720" x1="585.064" y1="218.141" x2="585.064" y2="514" gradientUnits="userSpaceOnUse">
<stop stop-color="white" stop-opacity="0"/>
<stop offset="1" stop-color="white" stop-opacity="0.65"/>
</linearGradient>
<linearGradient id="paint81_linear_94_12720" x1="585.064" y1="218.141" x2="585.064" y2="514" gradientUnits="userSpaceOnUse">
<stop stop-color="white" stop-opacity="0"/>
<stop offset="1" stop-color="white" stop-opacity="0.65"/>
</linearGradient>
<linearGradient id="paint82_linear_94_12720" x1="585.064" y1="218.141" x2="585.064" y2="514" gradientUnits="userSpaceOnUse">
<stop stop-color="white" stop-opacity="0"/>
<stop offset="1" stop-color="white" stop-opacity="0.65"/>
</linearGradient>
<linearGradient id="paint83_linear_94_12720" x1="585.064" y1="218.141" x2="585.064" y2="514" gradientUnits="userSpaceOnUse">
<stop stop-color="white" stop-opacity="0"/>
<stop offset="1" stop-color="white" stop-opacity="0.65"/>
</linearGradient>
<linearGradient id="paint84_linear_94_12720" x1="585.064" y1="218.141" x2="585.064" y2="514" gradientUnits="userSpaceOnUse">
<stop stop-color="white" stop-opacity="0"/>
<stop offset="1" stop-color="white" stop-opacity="0.65"/>
</linearGradient>
<linearGradient id="paint85_linear_94_12720" x1="585.064" y1="218.141" x2="585.064" y2="514" gradientUnits="userSpaceOnUse">
<stop stop-color="white" stop-opacity="0"/>
<stop offset="1" stop-color="white" stop-opacity="0.65"/>
</linearGradient>
<linearGradient id="paint86_linear_94_12720" x1="585.064" y1="218.141" x2="585.064" y2="514" gradientUnits="userSpaceOnUse">
<stop stop-color="white" stop-opacity="0"/>
<stop offset="1" stop-color="white" stop-opacity="0.65"/>
</linearGradient>
<linearGradient id="paint87_linear_94_12720" x1="585.064" y1="218.141" x2="585.064" y2="514" gradientUnits="userSpaceOnUse">
<stop stop-color="white" stop-opacity="0"/>
<stop offset="1" stop-color="white" stop-opacity="0.65"/>
</linearGradient>
<linearGradient id="paint88_linear_94_12720" x1="585.064" y1="218.141" x2="585.064" y2="514" gradientUnits="userSpaceOnUse">
<stop stop-color="white" stop-opacity="0"/>
<stop offset="1" stop-color="white" stop-opacity="0.65"/>
</linearGradient>
<linearGradient id="paint89_linear_94_12720" x1="585.064" y1="218.141" x2="585.064" y2="514" gradientUnits="userSpaceOnUse">
<stop stop-color="white" stop-opacity="0"/>
<stop offset="1" stop-color="white" stop-opacity="0.65"/>
</linearGradient>
<linearGradient id="paint90_linear_94_12720" x1="585.064" y1="218.141" x2="585.064" y2="514" gradientUnits="userSpaceOnUse">
<stop stop-color="white" stop-opacity="0"/>
<stop offset="1" stop-color="white" stop-opacity="0.65"/>
</linearGradient>
<linearGradient id="paint91_linear_94_12720" x1="585.064" y1="218.141" x2="585.064" y2="514" gradientUnits="userSpaceOnUse">
<stop stop-color="white" stop-opacity="0"/>
<stop offset="1" stop-color="white" stop-opacity="0.65"/>
</linearGradient>
<linearGradient id="paint92_linear_94_12720" x1="585.064" y1="218.141" x2="585.064" y2="514" gradientUnits="userSpaceOnUse">
<stop stop-color="white" stop-opacity="0"/>
<stop offset="1" stop-color="white" stop-opacity="0.65"/>
</linearGradient>
<linearGradient id="paint93_linear_94_12720" x1="585.064" y1="218.141" x2="585.064" y2="514" gradientUnits="userSpaceOnUse">
<stop stop-color="white" stop-opacity="0"/>
<stop offset="1" stop-color="white" stop-opacity="0.65"/>
</linearGradient>
<linearGradient id="paint94_linear_94_12720" x1="585.064" y1="218.141" x2="585.064" y2="514" gradientUnits="userSpaceOnUse">
<stop stop-color="white" stop-opacity="0"/>
<stop offset="1" stop-color="white" stop-opacity="0.65"/>
</linearGradient>
<linearGradient id="paint95_linear_94_12720" x1="585.064" y1="218.141" x2="585.064" y2="514" gradientUnits="userSpaceOnUse">
<stop stop-color="white" stop-opacity="0"/>
<stop offset="1" stop-color="white" stop-opacity="0.65"/>
</linearGradient>
<linearGradient id="paint96_linear_94_12720" x1="585.064" y1="218.141" x2="585.064" y2="514" gradientUnits="userSpaceOnUse">
<stop stop-color="white" stop-opacity="0"/>
<stop offset="1" stop-color="white" stop-opacity="0.65"/>
</linearGradient>
<linearGradient id="paint97_linear_94_12720" x1="585.064" y1="218.141" x2="585.064" y2="514" gradientUnits="userSpaceOnUse">
<stop stop-color="white" stop-opacity="0"/>
<stop offset="1" stop-color="white" stop-opacity="0.65"/>
</linearGradient>
<linearGradient id="paint98_linear_94_12720" x1="585.064" y1="218.141" x2="585.064" y2="514" gradientUnits="userSpaceOnUse">
<stop stop-color="white" stop-opacity="0"/>
<stop offset="1" stop-color="white" stop-opacity="0.65"/>
</linearGradient>
<linearGradient id="paint99_linear_94_12720" x1="585.064" y1="218.141" x2="585.064" y2="514" gradientUnits="userSpaceOnUse">
<stop stop-color="white" stop-opacity="0"/>
<stop offset="1" stop-color="white" stop-opacity="0.65"/>
</linearGradient>
<linearGradient id="paint100_linear_94_12720" x1="585.064" y1="218.141" x2="585.064" y2="514" gradientUnits="userSpaceOnUse">
<stop stop-color="white" stop-opacity="0"/>
<stop offset="1" stop-color="white" stop-opacity="0.65"/>
</linearGradient>
<linearGradient id="paint101_linear_94_12720" x1="585.064" y1="218.141" x2="585.064" y2="514" gradientUnits="userSpaceOnUse">
<stop stop-color="white" stop-opacity="0"/>
<stop offset="1" stop-color="white" stop-opacity="0.65"/>
</linearGradient>
<linearGradient id="paint102_linear_94_12720" x1="585.064" y1="218.141" x2="585.064" y2="514" gradientUnits="userSpaceOnUse">
<stop stop-color="white" stop-opacity="0"/>
<stop offset="1" stop-color="white" stop-opacity="0.65"/>
</linearGradient>
<linearGradient id="paint103_linear_94_12720" x1="585.064" y1="218.141" x2="585.064" y2="514" gradientUnits="userSpaceOnUse">
<stop stop-color="white" stop-opacity="0"/>
<stop offset="1" stop-color="white" stop-opacity="0.65"/>
</linearGradient>
<linearGradient id="paint104_linear_94_12720" x1="585.064" y1="218.141" x2="585.064" y2="514" gradientUnits="userSpaceOnUse">
<stop stop-color="white" stop-opacity="0"/>
<stop offset="1" stop-color="white" stop-opacity="0.65"/>
</linearGradient>
<linearGradient id="paint105_linear_94_12720" x1="585.064" y1="218.141" x2="585.064" y2="514" gradientUnits="userSpaceOnUse">
<stop stop-color="white" stop-opacity="0"/>
<stop offset="1" stop-color="white" stop-opacity="0.65"/>
</linearGradient>
<linearGradient id="paint106_linear_94_12720" x1="585.064" y1="218.141" x2="585.064" y2="514" gradientUnits="userSpaceOnUse">
<stop stop-color="white" stop-opacity="0"/>
<stop offset="1" stop-color="white" stop-opacity="0.65"/>
</linearGradient>
<linearGradient id="paint107_linear_94_12720" x1="585.064" y1="218.141" x2="585.064" y2="514" gradientUnits="userSpaceOnUse">
<stop stop-color="white" stop-opacity="0"/>
<stop offset="1" stop-color="white" stop-opacity="0.65"/>
</linearGradient>
<linearGradient id="paint108_linear_94_12720" x1="585.064" y1="218.141" x2="585.064" y2="514" gradientUnits="userSpaceOnUse">
<stop stop-color="white" stop-opacity="0"/>
<stop offset="1" stop-color="white" stop-opacity="0.65"/>
</linearGradient>
<linearGradient id="paint109_linear_94_12720" x1="585.064" y1="218.141" x2="585.064" y2="514" gradientUnits="userSpaceOnUse">
<stop stop-color="white" stop-opacity="0"/>
<stop offset="1" stop-color="white" stop-opacity="0.65"/>
</linearGradient>
<linearGradient id="paint110_linear_94_12720" x1="585.064" y1="218.141" x2="585.064" y2="514" gradientUnits="userSpaceOnUse">
<stop stop-color="white" stop-opacity="0"/>
<stop offset="1" stop-color="white" stop-opacity="0.65"/>
</linearGradient>
<linearGradient id="paint111_linear_94_12720" x1="585.064" y1="218.141" x2="585.064" y2="514" gradientUnits="userSpaceOnUse">
<stop stop-color="white" stop-opacity="0"/>
<stop offset="1" stop-color="white" stop-opacity="0.65"/>
</linearGradient>
<linearGradient id="paint112_linear_94_12720" x1="585.064" y1="218.141" x2="585.064" y2="514" gradientUnits="userSpaceOnUse">
<stop stop-color="white" stop-opacity="0"/>
<stop offset="1" stop-color="white" stop-opacity="0.65"/>
</linearGradient>
<linearGradient id="paint113_linear_94_12720" x1="585.064" y1="218.141" x2="585.064" y2="514" gradientUnits="userSpaceOnUse">
<stop stop-color="white" stop-opacity="0"/>
<stop offset="1" stop-color="white" stop-opacity="0.65"/>
</linearGradient>
<linearGradient id="paint114_linear_94_12720" x1="585.064" y1="218.141" x2="585.064" y2="514" gradientUnits="userSpaceOnUse">
<stop stop-color="white" stop-opacity="0"/>
<stop offset="1" stop-color="white" stop-opacity="0.65"/>
</linearGradient>
<linearGradient id="paint115_linear_94_12720" x1="585.064" y1="218.141" x2="585.064" y2="514" gradientUnits="userSpaceOnUse">
<stop stop-color="white" stop-opacity="0"/>
<stop offset="1" stop-color="white" stop-opacity="0.65"/>
</linearGradient>
<linearGradient id="paint116_linear_94_12720" x1="585.064" y1="218.141" x2="585.064" y2="514" gradientUnits="userSpaceOnUse">
<stop stop-color="white" stop-opacity="0"/>
<stop offset="1" stop-color="white" stop-opacity="0.65"/>
</linearGradient>
<linearGradient id="paint117_linear_94_12720" x1="585.064" y1="218.141" x2="585.064" y2="514" gradientUnits="userSpaceOnUse">
<stop stop-color="white" stop-opacity="0"/>
<stop offset="1" stop-color="white" stop-opacity="0.65"/>
</linearGradient>
<linearGradient id="paint118_linear_94_12720" x1="585.064" y1="218.141" x2="585.064" y2="514" gradientUnits="userSpaceOnUse">
<stop stop-color="white" stop-opacity="0"/>
<stop offset="1" stop-color="white" stop-opacity="0.65"/>
</linearGradient>
<linearGradient id="paint119_linear_94_12720" x1="585.064" y1="218.141" x2="585.064" y2="514" gradientUnits="userSpaceOnUse">
<stop stop-color="white" stop-opacity="0"/>
<stop offset="1" stop-color="white" stop-opacity="0.65"/>
</linearGradient>
</defs>
</svg>
