<svg width="1170" height="411" viewBox="0 0 1170 411" fill="none" xmlns="http://www.w3.org/2000/svg">
<g filter="url(#filter0_f_20_12543)">
<rect width="600" height="2" transform="matrix(-1 0 0 1 885 399)" fill="url(#paint0_linear_20_12543)"/>
</g>
<g filter="url(#filter1_f_20_12543)">
<rect width="600" height="2" transform="matrix(-1 0 0 1 885 399)" fill="url(#paint1_linear_20_12543)"/>
</g>
<rect y="277" width="1170" height="123" fill="#030014"/>
<rect x="100" width="970" height="393" rx="20" fill="url(#paint2_linear_20_12543)" fill-opacity="0.03"/>
<rect x="100.5" y="0.5" width="969" height="392" rx="19.5" stroke="url(#paint3_linear_20_12543)" stroke-opacity="0.08"/>
<rect x="110" y="10" width="950" height="391" rx="12" fill="url(#paint4_linear_20_12543)" fill-opacity="0.04"/>
<rect x="110.5" y="10.5" width="949" height="390" rx="11.5" stroke="url(#paint5_linear_20_12543)" stroke-opacity="0.12"/>
<line x1="310.5" y1="10" x2="310.5" y2="401" stroke="url(#paint6_linear_20_12543)" stroke-opacity="0.12"/>
<circle cx="134" cy="36" r="4" fill="white" fill-opacity="0.2"/>
<circle cx="148" cy="36" r="4" fill="white" fill-opacity="0.2"/>
<circle cx="162" cy="36" r="4" fill="white" fill-opacity="0.2"/>
<rect x="130" y="84" width="160" height="30" rx="8" fill="white" fill-opacity="0.1"/>
<rect x="370" y="66" width="160" height="8" rx="4" fill="white" fill-opacity="0.1"/>
<rect x="370" y="84" width="128" height="8" rx="4" fill="white" fill-opacity="0.1"/>
<rect x="370" y="102" width="99" height="8" rx="4" fill="white" fill-opacity="0.1"/>
<rect x="540" y="66" width="71" height="8" rx="4" fill="white" fill-opacity="0.1"/>
<rect x="506" y="84" width="57" height="8" rx="4" fill="white" fill-opacity="0.1"/>
<rect x="475" y="102" width="45" height="8" rx="4" fill="white" fill-opacity="0.1"/>
<rect x="621" y="66" width="110" height="8" rx="4" fill="white" fill-opacity="0.1"/>
<rect x="571" y="84" width="88" height="8" rx="4" fill="white" fill-opacity="0.1"/>
<rect x="526" y="102" width="68" height="8" rx="4" fill="white" fill-opacity="0.1"/>
<rect x="741" y="66" width="40" height="8" rx="4" fill="white" fill-opacity="0.1"/>
<rect x="667" y="84" width="32" height="8" rx="4" fill="white" fill-opacity="0.1"/>
<rect x="600" y="102" width="25" height="8" rx="4" fill="white" fill-opacity="0.1"/>
<rect x="791" y="66" width="78" height="8" rx="4" fill="white" fill-opacity="0.1"/>
<rect x="707" y="84" width="63" height="8" rx="4" fill="white" fill-opacity="0.1"/>
<rect x="631" y="102" width="49" height="8" rx="4" fill="white" fill-opacity="0.1"/>
<rect x="370" y="135" width="160" height="8" rx="4" fill="white" fill-opacity="0.07"/>
<rect x="370" y="153" width="128" height="8" rx="4" fill="white" fill-opacity="0.07"/>
<rect x="540" y="135" width="71" height="8" rx="4" fill="white" fill-opacity="0.07"/>
<rect x="506" y="153" width="70" height="8" rx="4" fill="white" fill-opacity="0.07"/>
<rect x="621" y="135" width="79" height="8" rx="4" fill="white" fill-opacity="0.07"/>
<rect x="586" y="153" width="108" height="8" rx="4" fill="white" fill-opacity="0.07"/>
<rect x="708" y="135" width="28" height="8" rx="4" fill="white" fill-opacity="0.07"/>
<rect x="704" y="153" width="40" height="8" rx="4" fill="white" fill-opacity="0.07"/>
<rect x="744" y="135" width="56" height="8" rx="4" fill="white" fill-opacity="0.07"/>
<rect x="753" y="153" width="78" height="8" rx="4" fill="white" fill-opacity="0.07"/>
<rect x="370" y="186" width="160" height="8" rx="4" fill="white" fill-opacity="0.03"/>
<rect x="370" y="204" width="128" height="8" rx="4" fill="white" fill-opacity="0.03"/>
<rect x="540" y="186" width="71" height="8" rx="4" fill="white" fill-opacity="0.03"/>
<rect x="506" y="204" width="57" height="8" rx="4" fill="white" fill-opacity="0.03"/>
<rect x="621" y="186" width="110" height="8" rx="4" fill="white" fill-opacity="0.03"/>
<rect x="571" y="204" width="88" height="8" rx="4" fill="white" fill-opacity="0.03"/>
<rect x="741" y="186" width="40" height="8" rx="4" fill="white" fill-opacity="0.03"/>
<rect x="667" y="204" width="32" height="8" rx="4" fill="white" fill-opacity="0.03"/>
<rect x="791" y="186" width="78" height="8" rx="4" fill="white" fill-opacity="0.03"/>
<rect x="707" y="204" width="63" height="8" rx="4" fill="white" fill-opacity="0.03"/>
<rect x="370" y="237" width="160" height="8" rx="4" fill="white" fill-opacity="0.01"/>
<rect x="370" y="255" width="128" height="8" rx="4" fill="white" fill-opacity="0.01"/>
<rect x="540" y="237" width="71" height="8" rx="4" fill="white" fill-opacity="0.01"/>
<rect x="506" y="255" width="57" height="8" rx="4" fill="white" fill-opacity="0.01"/>
<rect x="621" y="237" width="110" height="8" rx="4" fill="white" fill-opacity="0.01"/>
<rect x="571" y="255" width="88" height="8" rx="4" fill="white" fill-opacity="0.01"/>
<rect x="741" y="237" width="40" height="8" rx="4" fill="white" fill-opacity="0.01"/>
<rect x="667" y="255" width="32" height="8" rx="4" fill="white" fill-opacity="0.01"/>
<rect x="791" y="237" width="78" height="8" rx="4" fill="white" fill-opacity="0.01"/>
<rect x="707" y="255" width="63" height="8" rx="4" fill="white" fill-opacity="0.01"/>
<rect x="130" y="126" width="160" height="30" rx="8" fill="white" fill-opacity="0.08"/>
<rect x="130" y="168" width="160" height="30" rx="8" fill="white" fill-opacity="0.06"/>
<rect x="130" y="210" width="160" height="30" rx="8" fill="white" fill-opacity="0.04"/>
<rect x="130" y="252" width="160" height="30" rx="8" fill="white" fill-opacity="0.02"/>
<rect x="130" y="294" width="160" height="30" rx="8" fill="white" fill-opacity="0.01"/>
<rect x="130" y="336" width="160" height="30" rx="8" fill="url(#paint7_linear_20_12543)" fill-opacity="0.01"/>
<line x1="110" y1="59.5" x2="310" y2="59.5" stroke="white" stroke-opacity="0.12"/>
<line x1="4.37114e-08" y1="399.5" x2="1170" y2="399.5" stroke="url(#paint8_linear_20_12543)" stroke-opacity="0.8"/>
<defs>
<filter id="filter0_f_20_12543" x="275" y="389" width="620" height="22" filterUnits="userSpaceOnUse" color-interpolation-filters="sRGB">
<feFlood flood-opacity="0" result="BackgroundImageFix"/>
<feBlend mode="normal" in="SourceGraphic" in2="BackgroundImageFix" result="shape"/>
<feGaussianBlur stdDeviation="5" result="effect1_foregroundBlur_20_12543"/>
</filter>
<filter id="filter1_f_20_12543" x="284" y="398" width="602" height="4" filterUnits="userSpaceOnUse" color-interpolation-filters="sRGB">
<feFlood flood-opacity="0" result="BackgroundImageFix"/>
<feBlend mode="normal" in="SourceGraphic" in2="BackgroundImageFix" result="shape"/>
<feGaussianBlur stdDeviation="0.5" result="effect1_foregroundBlur_20_12543"/>
</filter>
<linearGradient id="paint0_linear_20_12543" x1="596.25" y1="1.76087" x2="596.156" y2="9.22991" gradientUnits="userSpaceOnUse">
<stop stop-color="#030014"/>
<stop offset="0.286458" stop-color="#701EFC"/>
<stop offset="0.515625" stop-color="#CBB3F3"/>
<stop offset="0.786458" stop-color="#030014"/>
</linearGradient>
<linearGradient id="paint1_linear_20_12543" x1="596.25" y1="1.76087" x2="596.156" y2="9.22991" gradientUnits="userSpaceOnUse">
<stop stop-color="#030014"/>
<stop offset="0.286458" stop-color="#701EFC"/>
<stop offset="0.515625" stop-color="#CBB3F3"/>
<stop offset="0.786458" stop-color="#030014"/>
</linearGradient>
<linearGradient id="paint2_linear_20_12543" x1="585" y1="0" x2="585" y2="393" gradientUnits="userSpaceOnUse">
<stop stop-color="white"/>
<stop offset="1" stop-color="white" stop-opacity="0"/>
</linearGradient>
<linearGradient id="paint3_linear_20_12543" x1="585" y1="0" x2="585" y2="411.5" gradientUnits="userSpaceOnUse">
<stop stop-color="white"/>
<stop offset="1" stop-color="white" stop-opacity="0"/>
</linearGradient>
<linearGradient id="paint4_linear_20_12543" x1="585" y1="10" x2="585" y2="401" gradientUnits="userSpaceOnUse">
<stop stop-color="white"/>
<stop offset="1" stop-color="white" stop-opacity="0"/>
</linearGradient>
<linearGradient id="paint5_linear_20_12543" x1="585" y1="10" x2="585" y2="401" gradientUnits="userSpaceOnUse">
<stop stop-color="white"/>
<stop offset="1" stop-color="white" stop-opacity="0"/>
</linearGradient>
<linearGradient id="paint6_linear_20_12543" x1="310" y1="401" x2="310" y2="10" gradientUnits="userSpaceOnUse">
<stop stop-color="white" stop-opacity="0"/>
<stop offset="0.703125" stop-color="white"/>
</linearGradient>
<linearGradient id="paint7_linear_20_12543" x1="210" y1="336" x2="210" y2="366" gradientUnits="userSpaceOnUse">
<stop stop-color="white"/>
<stop offset="1" stop-color="white" stop-opacity="0"/>
</linearGradient>
<linearGradient id="paint8_linear_20_12543" x1="1170" y1="400" x2="0" y2="400" gradientUnits="userSpaceOnUse">
<stop stop-color="white" stop-opacity="0"/>
<stop offset="0.536458" stop-color="white" stop-opacity="0.2"/>
<stop offset="1" stop-color="white" stop-opacity="0"/>
</linearGradient>
</defs>
</svg>
