<svg width="33" height="32" viewBox="0 0 33 32" fill="none" xmlns="http://www.w3.org/2000/svg">
<g clip-path="url(#clip0_272_6409)">
<path d="M16.0082 0.900513C7.65821 0.900513 0.908203 7.65052 0.908203 16.0005C0.908203 24.3505 7.65821 31.1505 16.0082 31.1505C24.3582 31.1505 31.1582 24.3505 31.1582 16.0005C31.1582 7.65052 24.3582 0.900513 16.0082 0.900513ZM16.0082 28.9005C8.90821 28.9005 3.1582 23.1005 3.1582 16.0005C3.1582 8.90052 8.90821 3.15051 16.0082 3.15051C23.1082 3.15051 28.9082 8.95052 28.9082 16.0505C28.9082 23.1005 23.1082 28.9005 16.0082 28.9005Z" fill="url(#paint0_linear_272_6409)"/>
<path d="M20.3073 11.3505L14.3573 17.1505L11.6573 14.5005C11.2073 14.0505 10.5073 14.1005 10.0573 14.5005C9.60731 14.9505 9.65731 15.6505 10.0573 16.1005L13.2573 19.2005C13.5573 19.5005 13.9573 19.6505 14.3573 19.6505C14.7573 19.6505 15.1573 19.5005 15.4573 19.2005L21.9073 13.0005C22.3573 12.5505 22.3573 11.8505 21.9073 11.4005C21.4573 10.9505 20.7573 10.9505 20.3073 11.3505Z" fill="url(#paint1_linear_272_6409)"/>
</g>
<defs>
<linearGradient id="paint0_linear_272_6409" x1="16.0332" y1="0.900513" x2="16.0332" y2="37.5505" gradientUnits="userSpaceOnUse">
<stop stop-color="white"/>
<stop offset="0.744792" stop-color="white" stop-opacity="0.364583"/>
<stop offset="1" stop-color="white" stop-opacity="0"/>
</linearGradient>
<linearGradient id="paint1_linear_272_6409" x1="15.9915" y1="11.0565" x2="15.9915" y2="21.4688" gradientUnits="userSpaceOnUse">
<stop stop-color="white"/>
<stop offset="0.744792" stop-color="white" stop-opacity="0.364583"/>
<stop offset="1" stop-color="white" stop-opacity="0"/>
</linearGradient>
<clipPath id="clip0_272_6409">
<rect width="32" height="32" fill="white" transform="translate(0.0078125 0.000488281)"/>
</clipPath>
</defs>
</svg>
