<svg width="1170" height="192" viewBox="0 0 1170 192" fill="none" xmlns="http://www.w3.org/2000/svg">
<g opacity="0.2">
<path fill-rule="evenodd" clip-rule="evenodd" d="M-271.595 192L-271.595 -238L-270.911 -238L-270.911 192H-271.595Z" fill="url(#paint0_linear_62_11172)"/>
<path fill-rule="evenodd" clip-rule="evenodd" d="M-249.037 192L-249.037 -238L-248.354 -238L-248.354 192H-249.037Z" fill="url(#paint1_linear_62_11172)"/>
<path fill-rule="evenodd" clip-rule="evenodd" d="M-226.48 192L-226.48 -238L-225.796 -238L-225.796 192H-226.48Z" fill="url(#paint2_linear_62_11172)"/>
<path fill-rule="evenodd" clip-rule="evenodd" d="M-203.922 192L-203.922 -238L-203.239 -238L-203.239 192H-203.922Z" fill="url(#paint3_linear_62_11172)"/>
<path fill-rule="evenodd" clip-rule="evenodd" d="M-181.365 192L-181.365 -238L-180.681 -238L-180.681 192H-181.365Z" fill="url(#paint4_linear_62_11172)"/>
<path fill-rule="evenodd" clip-rule="evenodd" d="M-158.807 192L-158.807 -238L-158.124 -238L-158.124 192H-158.807Z" fill="url(#paint5_linear_62_11172)"/>
<path fill-rule="evenodd" clip-rule="evenodd" d="M-136.25 192L-136.25 -238L-135.566 -238L-135.566 192H-136.25Z" fill="url(#paint6_linear_62_11172)"/>
<path fill-rule="evenodd" clip-rule="evenodd" d="M-113.693 192L-113.693 -238L-113.009 -238L-113.009 192H-113.693Z" fill="url(#paint7_linear_62_11172)"/>
<path fill-rule="evenodd" clip-rule="evenodd" d="M-91.1351 192L-91.1351 -238L-90.4516 -238L-90.4516 192H-91.1351Z" fill="url(#paint8_linear_62_11172)"/>
<path fill-rule="evenodd" clip-rule="evenodd" d="M-68.5777 192L-68.5777 -238L-67.8941 -238L-67.8941 192H-68.5777Z" fill="url(#paint9_linear_62_11172)"/>
<path fill-rule="evenodd" clip-rule="evenodd" d="M-46.0203 192L-46.0203 -238L-45.3367 -238L-45.3367 192H-46.0203Z" fill="url(#paint10_linear_62_11172)"/>
<path fill-rule="evenodd" clip-rule="evenodd" d="M-23.4629 192L-23.4628 -238L-22.7793 -238L-22.7793 192H-23.4629Z" fill="url(#paint11_linear_62_11172)"/>
<path fill-rule="evenodd" clip-rule="evenodd" d="M-0.905426 192L-0.905396 -238L-0.221832 -238L-0.221863 192H-0.905426Z" fill="url(#paint12_linear_62_11172)"/>
<path fill-rule="evenodd" clip-rule="evenodd" d="M21.652 192V-238L22.3356 -238V192H21.652Z" fill="url(#paint13_linear_62_11172)"/>
<path fill-rule="evenodd" clip-rule="evenodd" d="M44.2095 192V-238L44.893 -238L44.893 192H44.2095Z" fill="url(#paint14_linear_62_11172)"/>
<path fill-rule="evenodd" clip-rule="evenodd" d="M66.7669 192V-238L67.4504 -238V192H66.7669Z" fill="url(#paint15_linear_62_11172)"/>
<path fill-rule="evenodd" clip-rule="evenodd" d="M89.3243 192L89.3243 -238L90.0079 -238L90.0078 192H89.3243Z" fill="url(#paint16_linear_62_11172)"/>
<path fill-rule="evenodd" clip-rule="evenodd" d="M111.882 192L111.882 -238L112.565 -238L112.565 192H111.882Z" fill="url(#paint17_linear_62_11172)"/>
<path fill-rule="evenodd" clip-rule="evenodd" d="M134.439 192L134.439 -238L135.123 -238L135.123 192H134.439Z" fill="url(#paint18_linear_62_11172)"/>
<path fill-rule="evenodd" clip-rule="evenodd" d="M156.996 192L156.997 -238L157.68 -238L157.68 192H156.996Z" fill="url(#paint19_linear_62_11172)"/>
<path fill-rule="evenodd" clip-rule="evenodd" d="M179.554 192L179.554 -238L180.238 -238L180.237 192H179.554Z" fill="url(#paint20_linear_62_11172)"/>
<path fill-rule="evenodd" clip-rule="evenodd" d="M202.111 192L202.111 -238L202.795 -238L202.795 192H202.111Z" fill="url(#paint21_linear_62_11172)"/>
<path fill-rule="evenodd" clip-rule="evenodd" d="M224.669 192L224.669 -238L225.352 -238L225.352 192H224.669Z" fill="url(#paint22_linear_62_11172)"/>
<path fill-rule="evenodd" clip-rule="evenodd" d="M247.226 192V-238L247.91 -238V192H247.226Z" fill="url(#paint23_linear_62_11172)"/>
<path fill-rule="evenodd" clip-rule="evenodd" d="M269.784 192L269.784 -238L270.467 -238L270.467 192H269.784Z" fill="url(#paint24_linear_62_11172)"/>
<path fill-rule="evenodd" clip-rule="evenodd" d="M292.341 192V-238L293.025 -238L293.025 192H292.341Z" fill="url(#paint25_linear_62_11172)"/>
<path fill-rule="evenodd" clip-rule="evenodd" d="M314.898 192L314.898 -238L315.582 -238L315.582 192H314.898Z" fill="url(#paint26_linear_62_11172)"/>
<path fill-rule="evenodd" clip-rule="evenodd" d="M337.456 192V-238L338.139 -238V192H337.456Z" fill="url(#paint27_linear_62_11172)"/>
<path fill-rule="evenodd" clip-rule="evenodd" d="M360.013 192V-238L360.697 -238V192H360.013Z" fill="url(#paint28_linear_62_11172)"/>
<path fill-rule="evenodd" clip-rule="evenodd" d="M382.571 192V-238L383.254 -238V192H382.571Z" fill="url(#paint29_linear_62_11172)"/>
<path fill-rule="evenodd" clip-rule="evenodd" d="M405.128 192V-238L405.812 -238V192H405.128Z" fill="url(#paint30_linear_62_11172)"/>
<path fill-rule="evenodd" clip-rule="evenodd" d="M427.685 192V-238L428.369 -238V192H427.685Z" fill="url(#paint31_linear_62_11172)"/>
<path fill-rule="evenodd" clip-rule="evenodd" d="M450.243 192V-238L450.927 -238V192H450.243Z" fill="url(#paint32_linear_62_11172)"/>
<path fill-rule="evenodd" clip-rule="evenodd" d="M472.8 192V-238L473.484 -238V192H472.8Z" fill="url(#paint33_linear_62_11172)"/>
<path fill-rule="evenodd" clip-rule="evenodd" d="M495.358 192V-238L496.041 -238V192H495.358Z" fill="url(#paint34_linear_62_11172)"/>
<path fill-rule="evenodd" clip-rule="evenodd" d="M517.915 192V-238L518.599 -238V192H517.915Z" fill="url(#paint35_linear_62_11172)"/>
<path fill-rule="evenodd" clip-rule="evenodd" d="M540.473 192V-238L541.156 -238V192H540.473Z" fill="url(#paint36_linear_62_11172)"/>
<path fill-rule="evenodd" clip-rule="evenodd" d="M563.03 192V-238L563.714 -238V192H563.03Z" fill="url(#paint37_linear_62_11172)"/>
<path fill-rule="evenodd" clip-rule="evenodd" d="M585.587 192V-238L586.271 -238V192H585.587Z" fill="url(#paint38_linear_62_11172)"/>
<path fill-rule="evenodd" clip-rule="evenodd" d="M608.145 192V-238L608.828 -238V192H608.145Z" fill="url(#paint39_linear_62_11172)"/>
<path fill-rule="evenodd" clip-rule="evenodd" d="M630.702 192V-238L631.386 -238V192H630.702Z" fill="url(#paint40_linear_62_11172)"/>
<path fill-rule="evenodd" clip-rule="evenodd" d="M646.424 179.715H-288V179.032H646.424V179.715Z" fill="url(#paint41_linear_62_11172)"/>
<path fill-rule="evenodd" clip-rule="evenodd" d="M646.424 157.191H-288V156.509H646.424V157.191Z" fill="url(#paint42_linear_62_11172)"/>
<path fill-rule="evenodd" clip-rule="evenodd" d="M646.424 134.667H-288V133.984H646.424V134.667Z" fill="url(#paint43_linear_62_11172)"/>
<path fill-rule="evenodd" clip-rule="evenodd" d="M646.424 112.143H-288V111.461H646.424V112.143Z" fill="url(#paint44_linear_62_11172)"/>
<path fill-rule="evenodd" clip-rule="evenodd" d="M646.424 89.6194H-288V88.9369H646.424V89.6194Z" fill="url(#paint45_linear_62_11172)"/>
<path fill-rule="evenodd" clip-rule="evenodd" d="M646.424 67.0956H-288V66.4131H646.424V67.0956Z" fill="url(#paint46_linear_62_11172)"/>
<path fill-rule="evenodd" clip-rule="evenodd" d="M646.424 44.5718H-288V43.8893H646.424V44.5718Z" fill="url(#paint47_linear_62_11172)"/>
<path fill-rule="evenodd" clip-rule="evenodd" d="M646.424 22.048H-288V21.3654H646.424V22.048Z" fill="url(#paint48_linear_62_11172)"/>
<path fill-rule="evenodd" clip-rule="evenodd" d="M646.424 -0.475861H-288V-1.15839H646.424V-0.475861Z" fill="url(#paint49_linear_62_11172)"/>
<path fill-rule="evenodd" clip-rule="evenodd" d="M646.424 -23H-288V-23.6825H646.424V-23Z" fill="url(#paint50_linear_62_11172)"/>
<path fill-rule="evenodd" clip-rule="evenodd" d="M646.424 -45.5238H-288V-46.2063H646.424V-45.5238Z" fill="url(#paint51_linear_62_11172)"/>
<path fill-rule="evenodd" clip-rule="evenodd" d="M646.424 -68.0476H-288V-68.7302H646.424V-68.0476Z" fill="url(#paint52_linear_62_11172)"/>
<path fill-rule="evenodd" clip-rule="evenodd" d="M646.424 -90.5714H-288V-91.254H646.424V-90.5714Z" fill="url(#paint53_linear_62_11172)"/>
<path fill-rule="evenodd" clip-rule="evenodd" d="M646.424 -113.095H-288V-113.778H646.424V-113.095Z" fill="url(#paint54_linear_62_11172)"/>
<path fill-rule="evenodd" clip-rule="evenodd" d="M646.424 -135.619H-288V-136.302H646.424V-135.619Z" fill="url(#paint55_linear_62_11172)"/>
<path fill-rule="evenodd" clip-rule="evenodd" d="M646.424 -158.143H-288V-158.825H646.424V-158.143Z" fill="url(#paint56_linear_62_11172)"/>
<path fill-rule="evenodd" clip-rule="evenodd" d="M646.424 -180.667H-288V-181.349H646.424V-180.667Z" fill="url(#paint57_linear_62_11172)"/>
<path fill-rule="evenodd" clip-rule="evenodd" d="M646.424 -203.19H-288V-203.873H646.424V-203.19Z" fill="url(#paint58_linear_62_11172)"/>
<path fill-rule="evenodd" clip-rule="evenodd" d="M646.424 -225.715H-288V-226.397H646.424V-225.715Z" fill="url(#paint59_linear_62_11172)"/>
<path fill-rule="evenodd" clip-rule="evenodd" d="M517.874 192V-238L518.558 -238V192H517.874Z" fill="url(#paint60_linear_62_11172)"/>
<path fill-rule="evenodd" clip-rule="evenodd" d="M540.432 192L540.432 -238L541.115 -238L541.115 192H540.432Z" fill="url(#paint61_linear_62_11172)"/>
<path fill-rule="evenodd" clip-rule="evenodd" d="M562.989 192V-238L563.673 -238V192H562.989Z" fill="url(#paint62_linear_62_11172)"/>
<path fill-rule="evenodd" clip-rule="evenodd" d="M585.547 192V-238L586.23 -238V192H585.547Z" fill="url(#paint63_linear_62_11172)"/>
<path fill-rule="evenodd" clip-rule="evenodd" d="M608.104 192L608.104 -238L608.788 -238L608.788 192H608.104Z" fill="url(#paint64_linear_62_11172)"/>
<path fill-rule="evenodd" clip-rule="evenodd" d="M630.661 192V-238L631.345 -238V192H630.661Z" fill="url(#paint65_linear_62_11172)"/>
<path fill-rule="evenodd" clip-rule="evenodd" d="M653.219 192L653.219 -238L653.902 -238L653.902 192H653.219Z" fill="url(#paint66_linear_62_11172)"/>
<path fill-rule="evenodd" clip-rule="evenodd" d="M675.776 192L675.776 -238L676.46 -238L676.46 192H675.776Z" fill="url(#paint67_linear_62_11172)"/>
<path fill-rule="evenodd" clip-rule="evenodd" d="M698.334 192V-238L699.017 -238V192H698.334Z" fill="url(#paint68_linear_62_11172)"/>
<path fill-rule="evenodd" clip-rule="evenodd" d="M720.891 192V-238L721.575 -238V192H720.891Z" fill="url(#paint69_linear_62_11172)"/>
<path fill-rule="evenodd" clip-rule="evenodd" d="M743.448 192L743.449 -238L744.132 -238L744.132 192H743.448Z" fill="url(#paint70_linear_62_11172)"/>
<path fill-rule="evenodd" clip-rule="evenodd" d="M766.006 192V-238L766.69 -238V192H766.006Z" fill="url(#paint71_linear_62_11172)"/>
<path fill-rule="evenodd" clip-rule="evenodd" d="M788.563 192V-238L789.247 -238V192H788.563Z" fill="url(#paint72_linear_62_11172)"/>
<path fill-rule="evenodd" clip-rule="evenodd" d="M811.121 192V-238L811.804 -238V192H811.121Z" fill="url(#paint73_linear_62_11172)"/>
<path fill-rule="evenodd" clip-rule="evenodd" d="M833.678 192V-238L834.362 -238V192H833.678Z" fill="url(#paint74_linear_62_11172)"/>
<path fill-rule="evenodd" clip-rule="evenodd" d="M856.236 192V-238L856.919 -238V192H856.236Z" fill="url(#paint75_linear_62_11172)"/>
<path fill-rule="evenodd" clip-rule="evenodd" d="M878.793 192V-238L879.477 -238V192H878.793Z" fill="url(#paint76_linear_62_11172)"/>
<path fill-rule="evenodd" clip-rule="evenodd" d="M901.351 192V-238L902.034 -238V192H901.351Z" fill="url(#paint77_linear_62_11172)"/>
<path fill-rule="evenodd" clip-rule="evenodd" d="M923.908 192L923.908 -238L924.592 -238V192H923.908Z" fill="url(#paint78_linear_62_11172)"/>
<path fill-rule="evenodd" clip-rule="evenodd" d="M946.465 192L946.465 -238L947.149 -238L947.149 192H946.465Z" fill="url(#paint79_linear_62_11172)"/>
<path fill-rule="evenodd" clip-rule="evenodd" d="M969.023 192L969.023 -238L969.706 -238L969.706 192H969.023Z" fill="url(#paint80_linear_62_11172)"/>
<path fill-rule="evenodd" clip-rule="evenodd" d="M991.58 192V-238L992.264 -238V192H991.58Z" fill="url(#paint81_linear_62_11172)"/>
<path fill-rule="evenodd" clip-rule="evenodd" d="M1014.14 192V-238L1014.82 -238V192H1014.14Z" fill="url(#paint82_linear_62_11172)"/>
<path fill-rule="evenodd" clip-rule="evenodd" d="M1036.7 192V-238L1037.38 -238V192H1036.7Z" fill="url(#paint83_linear_62_11172)"/>
<path fill-rule="evenodd" clip-rule="evenodd" d="M1059.25 192V-238L1059.94 -238V192H1059.25Z" fill="url(#paint84_linear_62_11172)"/>
<path fill-rule="evenodd" clip-rule="evenodd" d="M1081.81 192V-238L1082.49 -238V192H1081.81Z" fill="url(#paint85_linear_62_11172)"/>
<path fill-rule="evenodd" clip-rule="evenodd" d="M1104.37 192L1104.37 -238L1105.05 -238L1105.05 192H1104.37Z" fill="url(#paint86_linear_62_11172)"/>
<path fill-rule="evenodd" clip-rule="evenodd" d="M1126.92 192L1126.92 -238L1127.61 -238L1127.61 192H1126.92Z" fill="url(#paint87_linear_62_11172)"/>
<path fill-rule="evenodd" clip-rule="evenodd" d="M1149.48 192V-238L1150.17 -238V192H1149.48Z" fill="url(#paint88_linear_62_11172)"/>
<path fill-rule="evenodd" clip-rule="evenodd" d="M1172.04 192V-238L1172.72 -238V192H1172.04Z" fill="url(#paint89_linear_62_11172)"/>
<path fill-rule="evenodd" clip-rule="evenodd" d="M1194.6 192V-238L1195.28 -238V192H1194.6Z" fill="url(#paint90_linear_62_11172)"/>
<path fill-rule="evenodd" clip-rule="evenodd" d="M1217.15 192V-238L1217.84 -238V192H1217.15Z" fill="url(#paint91_linear_62_11172)"/>
<path fill-rule="evenodd" clip-rule="evenodd" d="M1239.71 192V-238L1240.4 -238V192H1239.71Z" fill="url(#paint92_linear_62_11172)"/>
<path fill-rule="evenodd" clip-rule="evenodd" d="M1262.27 192V-238L1262.95 -238V192H1262.27Z" fill="url(#paint93_linear_62_11172)"/>
<path fill-rule="evenodd" clip-rule="evenodd" d="M1284.83 192V-238L1285.51 -238V192H1284.83Z" fill="url(#paint94_linear_62_11172)"/>
<path fill-rule="evenodd" clip-rule="evenodd" d="M1307.38 192V-238L1308.07 -238V192H1307.38Z" fill="url(#paint95_linear_62_11172)"/>
<path fill-rule="evenodd" clip-rule="evenodd" d="M1329.94 192V-238L1330.62 -238V192H1329.94Z" fill="url(#paint96_linear_62_11172)"/>
<path fill-rule="evenodd" clip-rule="evenodd" d="M1352.5 192V-238L1353.18 -238V192H1352.5Z" fill="url(#paint97_linear_62_11172)"/>
<path fill-rule="evenodd" clip-rule="evenodd" d="M1375.06 192V-238L1375.74 -238V192H1375.06Z" fill="url(#paint98_linear_62_11172)"/>
<path fill-rule="evenodd" clip-rule="evenodd" d="M1397.61 192V-238L1398.3 -238V192H1397.61Z" fill="url(#paint99_linear_62_11172)"/>
<path fill-rule="evenodd" clip-rule="evenodd" d="M1420.17 192V-238L1420.85 -238V192H1420.17Z" fill="url(#paint100_linear_62_11172)"/>
<path fill-rule="evenodd" clip-rule="evenodd" d="M1435.89 179.715H501.469V179.032H1435.89V179.715Z" fill="url(#paint101_linear_62_11172)"/>
<path fill-rule="evenodd" clip-rule="evenodd" d="M1435.89 157.191H501.469V156.509H1435.89V157.191Z" fill="url(#paint102_linear_62_11172)"/>
<path fill-rule="evenodd" clip-rule="evenodd" d="M1435.89 134.667H501.469V133.984H1435.89V134.667Z" fill="url(#paint103_linear_62_11172)"/>
<path fill-rule="evenodd" clip-rule="evenodd" d="M1435.89 112.143H501.469V111.461H1435.89V112.143Z" fill="url(#paint104_linear_62_11172)"/>
<path fill-rule="evenodd" clip-rule="evenodd" d="M1435.89 89.6194H501.469V88.9369H1435.89V89.6194Z" fill="url(#paint105_linear_62_11172)"/>
<path fill-rule="evenodd" clip-rule="evenodd" d="M1435.89 67.0956H501.469V66.4131H1435.89V67.0956Z" fill="url(#paint106_linear_62_11172)"/>
<path fill-rule="evenodd" clip-rule="evenodd" d="M1435.89 44.5718H501.469V43.8893H1435.89V44.5718Z" fill="url(#paint107_linear_62_11172)"/>
<path fill-rule="evenodd" clip-rule="evenodd" d="M1435.89 22.048H501.469V21.3654H1435.89V22.048Z" fill="url(#paint108_linear_62_11172)"/>
<path fill-rule="evenodd" clip-rule="evenodd" d="M1435.89 -0.475861H501.469V-1.15839H1435.89V-0.475861Z" fill="url(#paint109_linear_62_11172)"/>
<path fill-rule="evenodd" clip-rule="evenodd" d="M1435.89 -23H501.469V-23.6825H1435.89V-23Z" fill="url(#paint110_linear_62_11172)"/>
<path fill-rule="evenodd" clip-rule="evenodd" d="M1435.89 -45.5238H501.469V-46.2063H1435.89V-45.5238Z" fill="url(#paint111_linear_62_11172)"/>
<path fill-rule="evenodd" clip-rule="evenodd" d="M1435.89 -68.0476H501.469V-68.7302H1435.89V-68.0476Z" fill="url(#paint112_linear_62_11172)"/>
<path fill-rule="evenodd" clip-rule="evenodd" d="M1435.89 -90.5714H501.469V-91.254H1435.89V-90.5714Z" fill="url(#paint113_linear_62_11172)"/>
<path fill-rule="evenodd" clip-rule="evenodd" d="M1435.89 -113.095H501.469V-113.778H1435.89V-113.095Z" fill="url(#paint114_linear_62_11172)"/>
<path fill-rule="evenodd" clip-rule="evenodd" d="M1435.89 -135.619H501.469V-136.302H1435.89V-135.619Z" fill="url(#paint115_linear_62_11172)"/>
<path fill-rule="evenodd" clip-rule="evenodd" d="M1435.89 -158.143H501.469V-158.825H1435.89V-158.143Z" fill="url(#paint116_linear_62_11172)"/>
<path fill-rule="evenodd" clip-rule="evenodd" d="M1435.89 -180.667H501.469V-181.349H1435.89V-180.667Z" fill="url(#paint117_linear_62_11172)"/>
<path fill-rule="evenodd" clip-rule="evenodd" d="M1435.89 -203.19H501.469V-203.873H1435.89V-203.19Z" fill="url(#paint118_linear_62_11172)"/>
<path fill-rule="evenodd" clip-rule="evenodd" d="M1435.89 -225.715H501.469V-226.397H1435.89V-225.715Z" fill="url(#paint119_linear_62_11172)"/>
</g>
<defs>
<linearGradient id="paint0_linear_62_11172" x1="145.5" y1="167.5" x2="-134" y2="-131" gradientUnits="userSpaceOnUse">
<stop stop-color="white" stop-opacity="0"/>
<stop offset="1" stop-color="white" stop-opacity="0.65"/>
</linearGradient>
<linearGradient id="paint1_linear_62_11172" x1="145.5" y1="167.5" x2="-134" y2="-131" gradientUnits="userSpaceOnUse">
<stop stop-color="white" stop-opacity="0"/>
<stop offset="1" stop-color="white" stop-opacity="0.65"/>
</linearGradient>
<linearGradient id="paint2_linear_62_11172" x1="145.5" y1="167.5" x2="-134" y2="-131" gradientUnits="userSpaceOnUse">
<stop stop-color="white" stop-opacity="0"/>
<stop offset="1" stop-color="white" stop-opacity="0.65"/>
</linearGradient>
<linearGradient id="paint3_linear_62_11172" x1="145.5" y1="167.5" x2="-134" y2="-131" gradientUnits="userSpaceOnUse">
<stop stop-color="white" stop-opacity="0"/>
<stop offset="1" stop-color="white" stop-opacity="0.65"/>
</linearGradient>
<linearGradient id="paint4_linear_62_11172" x1="145.5" y1="167.5" x2="-134" y2="-131" gradientUnits="userSpaceOnUse">
<stop stop-color="white" stop-opacity="0"/>
<stop offset="1" stop-color="white" stop-opacity="0.65"/>
</linearGradient>
<linearGradient id="paint5_linear_62_11172" x1="145.5" y1="167.5" x2="-134" y2="-131" gradientUnits="userSpaceOnUse">
<stop stop-color="white" stop-opacity="0"/>
<stop offset="1" stop-color="white" stop-opacity="0.65"/>
</linearGradient>
<linearGradient id="paint6_linear_62_11172" x1="145.5" y1="167.5" x2="-134" y2="-131" gradientUnits="userSpaceOnUse">
<stop stop-color="white" stop-opacity="0"/>
<stop offset="1" stop-color="white" stop-opacity="0.65"/>
</linearGradient>
<linearGradient id="paint7_linear_62_11172" x1="145.5" y1="167.5" x2="-134" y2="-131" gradientUnits="userSpaceOnUse">
<stop stop-color="white" stop-opacity="0"/>
<stop offset="1" stop-color="white" stop-opacity="0.65"/>
</linearGradient>
<linearGradient id="paint8_linear_62_11172" x1="145.5" y1="167.5" x2="-134" y2="-131" gradientUnits="userSpaceOnUse">
<stop stop-color="white" stop-opacity="0"/>
<stop offset="1" stop-color="white" stop-opacity="0.65"/>
</linearGradient>
<linearGradient id="paint9_linear_62_11172" x1="145.5" y1="167.5" x2="-134" y2="-131" gradientUnits="userSpaceOnUse">
<stop stop-color="white" stop-opacity="0"/>
<stop offset="1" stop-color="white" stop-opacity="0.65"/>
</linearGradient>
<linearGradient id="paint10_linear_62_11172" x1="145.5" y1="167.5" x2="-134" y2="-131" gradientUnits="userSpaceOnUse">
<stop stop-color="white" stop-opacity="0"/>
<stop offset="1" stop-color="white" stop-opacity="0.65"/>
</linearGradient>
<linearGradient id="paint11_linear_62_11172" x1="145.5" y1="167.5" x2="-134" y2="-131" gradientUnits="userSpaceOnUse">
<stop stop-color="white" stop-opacity="0"/>
<stop offset="1" stop-color="white" stop-opacity="0.65"/>
</linearGradient>
<linearGradient id="paint12_linear_62_11172" x1="145.5" y1="167.5" x2="-134" y2="-131" gradientUnits="userSpaceOnUse">
<stop stop-color="white" stop-opacity="0"/>
<stop offset="1" stop-color="white" stop-opacity="0.65"/>
</linearGradient>
<linearGradient id="paint13_linear_62_11172" x1="145.5" y1="167.5" x2="-134" y2="-131" gradientUnits="userSpaceOnUse">
<stop stop-color="white" stop-opacity="0"/>
<stop offset="1" stop-color="white" stop-opacity="0.65"/>
</linearGradient>
<linearGradient id="paint14_linear_62_11172" x1="145.5" y1="167.5" x2="-134" y2="-131" gradientUnits="userSpaceOnUse">
<stop stop-color="white" stop-opacity="0"/>
<stop offset="1" stop-color="white" stop-opacity="0.65"/>
</linearGradient>
<linearGradient id="paint15_linear_62_11172" x1="145.5" y1="167.5" x2="-134" y2="-131" gradientUnits="userSpaceOnUse">
<stop stop-color="white" stop-opacity="0"/>
<stop offset="1" stop-color="white" stop-opacity="0.65"/>
</linearGradient>
<linearGradient id="paint16_linear_62_11172" x1="145.5" y1="167.5" x2="-134" y2="-131" gradientUnits="userSpaceOnUse">
<stop stop-color="white" stop-opacity="0"/>
<stop offset="1" stop-color="white" stop-opacity="0.65"/>
</linearGradient>
<linearGradient id="paint17_linear_62_11172" x1="145.5" y1="167.5" x2="-134" y2="-131" gradientUnits="userSpaceOnUse">
<stop stop-color="white" stop-opacity="0"/>
<stop offset="1" stop-color="white" stop-opacity="0.65"/>
</linearGradient>
<linearGradient id="paint18_linear_62_11172" x1="145.5" y1="167.5" x2="-134" y2="-131" gradientUnits="userSpaceOnUse">
<stop stop-color="white" stop-opacity="0"/>
<stop offset="1" stop-color="white" stop-opacity="0.65"/>
</linearGradient>
<linearGradient id="paint19_linear_62_11172" x1="145.5" y1="167.5" x2="-134" y2="-131" gradientUnits="userSpaceOnUse">
<stop stop-color="white" stop-opacity="0"/>
<stop offset="1" stop-color="white" stop-opacity="0.65"/>
</linearGradient>
<linearGradient id="paint20_linear_62_11172" x1="145.5" y1="167.5" x2="-134" y2="-131" gradientUnits="userSpaceOnUse">
<stop stop-color="white" stop-opacity="0"/>
<stop offset="1" stop-color="white" stop-opacity="0.65"/>
</linearGradient>
<linearGradient id="paint21_linear_62_11172" x1="145.5" y1="167.5" x2="-134" y2="-131" gradientUnits="userSpaceOnUse">
<stop stop-color="white" stop-opacity="0"/>
<stop offset="1" stop-color="white" stop-opacity="0.65"/>
</linearGradient>
<linearGradient id="paint22_linear_62_11172" x1="145.5" y1="167.5" x2="-134" y2="-131" gradientUnits="userSpaceOnUse">
<stop stop-color="white" stop-opacity="0"/>
<stop offset="1" stop-color="white" stop-opacity="0.65"/>
</linearGradient>
<linearGradient id="paint23_linear_62_11172" x1="145.5" y1="167.5" x2="-134" y2="-131" gradientUnits="userSpaceOnUse">
<stop stop-color="white" stop-opacity="0"/>
<stop offset="1" stop-color="white" stop-opacity="0.65"/>
</linearGradient>
<linearGradient id="paint24_linear_62_11172" x1="145.5" y1="167.5" x2="-134" y2="-131" gradientUnits="userSpaceOnUse">
<stop stop-color="white" stop-opacity="0"/>
<stop offset="1" stop-color="white" stop-opacity="0.65"/>
</linearGradient>
<linearGradient id="paint25_linear_62_11172" x1="145.5" y1="167.5" x2="-134" y2="-131" gradientUnits="userSpaceOnUse">
<stop stop-color="white" stop-opacity="0"/>
<stop offset="1" stop-color="white" stop-opacity="0.65"/>
</linearGradient>
<linearGradient id="paint26_linear_62_11172" x1="145.5" y1="167.5" x2="-134" y2="-131" gradientUnits="userSpaceOnUse">
<stop stop-color="white" stop-opacity="0"/>
<stop offset="1" stop-color="white" stop-opacity="0.65"/>
</linearGradient>
<linearGradient id="paint27_linear_62_11172" x1="145.5" y1="167.5" x2="-134" y2="-131" gradientUnits="userSpaceOnUse">
<stop stop-color="white" stop-opacity="0"/>
<stop offset="1" stop-color="white" stop-opacity="0.65"/>
</linearGradient>
<linearGradient id="paint28_linear_62_11172" x1="145.5" y1="167.5" x2="-134" y2="-131" gradientUnits="userSpaceOnUse">
<stop stop-color="white" stop-opacity="0"/>
<stop offset="1" stop-color="white" stop-opacity="0.65"/>
</linearGradient>
<linearGradient id="paint29_linear_62_11172" x1="145.5" y1="167.5" x2="-134" y2="-131" gradientUnits="userSpaceOnUse">
<stop stop-color="white" stop-opacity="0"/>
<stop offset="1" stop-color="white" stop-opacity="0.65"/>
</linearGradient>
<linearGradient id="paint30_linear_62_11172" x1="145.5" y1="167.5" x2="-134" y2="-131" gradientUnits="userSpaceOnUse">
<stop stop-color="white" stop-opacity="0"/>
<stop offset="1" stop-color="white" stop-opacity="0.65"/>
</linearGradient>
<linearGradient id="paint31_linear_62_11172" x1="145.5" y1="167.5" x2="-134" y2="-131" gradientUnits="userSpaceOnUse">
<stop stop-color="white" stop-opacity="0"/>
<stop offset="1" stop-color="white" stop-opacity="0.65"/>
</linearGradient>
<linearGradient id="paint32_linear_62_11172" x1="145.5" y1="167.5" x2="-134" y2="-131" gradientUnits="userSpaceOnUse">
<stop stop-color="white" stop-opacity="0"/>
<stop offset="1" stop-color="white" stop-opacity="0.65"/>
</linearGradient>
<linearGradient id="paint33_linear_62_11172" x1="145.5" y1="167.5" x2="-134" y2="-131" gradientUnits="userSpaceOnUse">
<stop stop-color="white" stop-opacity="0"/>
<stop offset="1" stop-color="white" stop-opacity="0.65"/>
</linearGradient>
<linearGradient id="paint34_linear_62_11172" x1="145.5" y1="167.5" x2="-134" y2="-131" gradientUnits="userSpaceOnUse">
<stop stop-color="white" stop-opacity="0"/>
<stop offset="1" stop-color="white" stop-opacity="0.65"/>
</linearGradient>
<linearGradient id="paint35_linear_62_11172" x1="145.5" y1="167.5" x2="-134" y2="-131" gradientUnits="userSpaceOnUse">
<stop stop-color="white" stop-opacity="0"/>
<stop offset="1" stop-color="white" stop-opacity="0.65"/>
</linearGradient>
<linearGradient id="paint36_linear_62_11172" x1="145.5" y1="167.5" x2="-134" y2="-131" gradientUnits="userSpaceOnUse">
<stop stop-color="white" stop-opacity="0"/>
<stop offset="1" stop-color="white" stop-opacity="0.65"/>
</linearGradient>
<linearGradient id="paint37_linear_62_11172" x1="145.5" y1="167.5" x2="-134" y2="-131" gradientUnits="userSpaceOnUse">
<stop stop-color="white" stop-opacity="0"/>
<stop offset="1" stop-color="white" stop-opacity="0.65"/>
</linearGradient>
<linearGradient id="paint38_linear_62_11172" x1="145.5" y1="167.5" x2="-134" y2="-131" gradientUnits="userSpaceOnUse">
<stop stop-color="white" stop-opacity="0"/>
<stop offset="1" stop-color="white" stop-opacity="0.65"/>
</linearGradient>
<linearGradient id="paint39_linear_62_11172" x1="145.5" y1="167.5" x2="-134" y2="-131" gradientUnits="userSpaceOnUse">
<stop stop-color="white" stop-opacity="0"/>
<stop offset="1" stop-color="white" stop-opacity="0.65"/>
</linearGradient>
<linearGradient id="paint40_linear_62_11172" x1="145.5" y1="167.5" x2="-134" y2="-131" gradientUnits="userSpaceOnUse">
<stop stop-color="white" stop-opacity="0"/>
<stop offset="1" stop-color="white" stop-opacity="0.65"/>
</linearGradient>
<linearGradient id="paint41_linear_62_11172" x1="145.5" y1="167.5" x2="-134" y2="-131" gradientUnits="userSpaceOnUse">
<stop stop-color="white" stop-opacity="0"/>
<stop offset="1" stop-color="white" stop-opacity="0.65"/>
</linearGradient>
<linearGradient id="paint42_linear_62_11172" x1="145.5" y1="167.5" x2="-134" y2="-131" gradientUnits="userSpaceOnUse">
<stop stop-color="white" stop-opacity="0"/>
<stop offset="1" stop-color="white" stop-opacity="0.65"/>
</linearGradient>
<linearGradient id="paint43_linear_62_11172" x1="145.5" y1="167.5" x2="-134" y2="-131" gradientUnits="userSpaceOnUse">
<stop stop-color="white" stop-opacity="0"/>
<stop offset="1" stop-color="white" stop-opacity="0.65"/>
</linearGradient>
<linearGradient id="paint44_linear_62_11172" x1="145.5" y1="167.5" x2="-134" y2="-131" gradientUnits="userSpaceOnUse">
<stop stop-color="white" stop-opacity="0"/>
<stop offset="1" stop-color="white" stop-opacity="0.65"/>
</linearGradient>
<linearGradient id="paint45_linear_62_11172" x1="145.5" y1="167.5" x2="-134" y2="-131" gradientUnits="userSpaceOnUse">
<stop stop-color="white" stop-opacity="0"/>
<stop offset="1" stop-color="white" stop-opacity="0.65"/>
</linearGradient>
<linearGradient id="paint46_linear_62_11172" x1="145.5" y1="167.5" x2="-134" y2="-131" gradientUnits="userSpaceOnUse">
<stop stop-color="white" stop-opacity="0"/>
<stop offset="1" stop-color="white" stop-opacity="0.65"/>
</linearGradient>
<linearGradient id="paint47_linear_62_11172" x1="145.5" y1="167.5" x2="-134" y2="-131" gradientUnits="userSpaceOnUse">
<stop stop-color="white" stop-opacity="0"/>
<stop offset="1" stop-color="white" stop-opacity="0.65"/>
</linearGradient>
<linearGradient id="paint48_linear_62_11172" x1="145.5" y1="167.5" x2="-134" y2="-131" gradientUnits="userSpaceOnUse">
<stop stop-color="white" stop-opacity="0"/>
<stop offset="1" stop-color="white" stop-opacity="0.65"/>
</linearGradient>
<linearGradient id="paint49_linear_62_11172" x1="145.5" y1="167.5" x2="-134" y2="-131" gradientUnits="userSpaceOnUse">
<stop stop-color="white" stop-opacity="0"/>
<stop offset="1" stop-color="white" stop-opacity="0.65"/>
</linearGradient>
<linearGradient id="paint50_linear_62_11172" x1="145.5" y1="167.5" x2="-134" y2="-131" gradientUnits="userSpaceOnUse">
<stop stop-color="white" stop-opacity="0"/>
<stop offset="1" stop-color="white" stop-opacity="0.65"/>
</linearGradient>
<linearGradient id="paint51_linear_62_11172" x1="145.5" y1="167.5" x2="-134" y2="-131" gradientUnits="userSpaceOnUse">
<stop stop-color="white" stop-opacity="0"/>
<stop offset="1" stop-color="white" stop-opacity="0.65"/>
</linearGradient>
<linearGradient id="paint52_linear_62_11172" x1="145.5" y1="167.5" x2="-134" y2="-131" gradientUnits="userSpaceOnUse">
<stop stop-color="white" stop-opacity="0"/>
<stop offset="1" stop-color="white" stop-opacity="0.65"/>
</linearGradient>
<linearGradient id="paint53_linear_62_11172" x1="145.5" y1="167.5" x2="-134" y2="-131" gradientUnits="userSpaceOnUse">
<stop stop-color="white" stop-opacity="0"/>
<stop offset="1" stop-color="white" stop-opacity="0.65"/>
</linearGradient>
<linearGradient id="paint54_linear_62_11172" x1="145.5" y1="167.5" x2="-134" y2="-131" gradientUnits="userSpaceOnUse">
<stop stop-color="white" stop-opacity="0"/>
<stop offset="1" stop-color="white" stop-opacity="0.65"/>
</linearGradient>
<linearGradient id="paint55_linear_62_11172" x1="145.5" y1="167.5" x2="-134" y2="-131" gradientUnits="userSpaceOnUse">
<stop stop-color="white" stop-opacity="0"/>
<stop offset="1" stop-color="white" stop-opacity="0.65"/>
</linearGradient>
<linearGradient id="paint56_linear_62_11172" x1="145.5" y1="167.5" x2="-134" y2="-131" gradientUnits="userSpaceOnUse">
<stop stop-color="white" stop-opacity="0"/>
<stop offset="1" stop-color="white" stop-opacity="0.65"/>
</linearGradient>
<linearGradient id="paint57_linear_62_11172" x1="145.5" y1="167.5" x2="-134" y2="-131" gradientUnits="userSpaceOnUse">
<stop stop-color="white" stop-opacity="0"/>
<stop offset="1" stop-color="white" stop-opacity="0.65"/>
</linearGradient>
<linearGradient id="paint58_linear_62_11172" x1="145.5" y1="167.5" x2="-134" y2="-131" gradientUnits="userSpaceOnUse">
<stop stop-color="white" stop-opacity="0"/>
<stop offset="1" stop-color="white" stop-opacity="0.65"/>
</linearGradient>
<linearGradient id="paint59_linear_62_11172" x1="145.5" y1="167.5" x2="-134" y2="-131" gradientUnits="userSpaceOnUse">
<stop stop-color="white" stop-opacity="0"/>
<stop offset="1" stop-color="white" stop-opacity="0.65"/>
</linearGradient>
<linearGradient id="paint60_linear_62_11172" x1="145.5" y1="167.5" x2="-134" y2="-131" gradientUnits="userSpaceOnUse">
<stop stop-color="white" stop-opacity="0"/>
<stop offset="1" stop-color="white" stop-opacity="0.65"/>
</linearGradient>
<linearGradient id="paint61_linear_62_11172" x1="145.5" y1="167.5" x2="-134" y2="-131" gradientUnits="userSpaceOnUse">
<stop stop-color="white" stop-opacity="0"/>
<stop offset="1" stop-color="white" stop-opacity="0.65"/>
</linearGradient>
<linearGradient id="paint62_linear_62_11172" x1="145.5" y1="167.5" x2="-134" y2="-131" gradientUnits="userSpaceOnUse">
<stop stop-color="white" stop-opacity="0"/>
<stop offset="1" stop-color="white" stop-opacity="0.65"/>
</linearGradient>
<linearGradient id="paint63_linear_62_11172" x1="145.5" y1="167.5" x2="-134" y2="-131" gradientUnits="userSpaceOnUse">
<stop stop-color="white" stop-opacity="0"/>
<stop offset="1" stop-color="white" stop-opacity="0.65"/>
</linearGradient>
<linearGradient id="paint64_linear_62_11172" x1="145.5" y1="167.5" x2="-134" y2="-131" gradientUnits="userSpaceOnUse">
<stop stop-color="white" stop-opacity="0"/>
<stop offset="1" stop-color="white" stop-opacity="0.65"/>
</linearGradient>
<linearGradient id="paint65_linear_62_11172" x1="145.5" y1="167.5" x2="-134" y2="-131" gradientUnits="userSpaceOnUse">
<stop stop-color="white" stop-opacity="0"/>
<stop offset="1" stop-color="white" stop-opacity="0.65"/>
</linearGradient>
<linearGradient id="paint66_linear_62_11172" x1="145.5" y1="167.5" x2="-134" y2="-131" gradientUnits="userSpaceOnUse">
<stop stop-color="white" stop-opacity="0"/>
<stop offset="1" stop-color="white" stop-opacity="0.65"/>
</linearGradient>
<linearGradient id="paint67_linear_62_11172" x1="145.5" y1="167.5" x2="-134" y2="-131" gradientUnits="userSpaceOnUse">
<stop stop-color="white" stop-opacity="0"/>
<stop offset="1" stop-color="white" stop-opacity="0.65"/>
</linearGradient>
<linearGradient id="paint68_linear_62_11172" x1="145.5" y1="167.5" x2="-134" y2="-131" gradientUnits="userSpaceOnUse">
<stop stop-color="white" stop-opacity="0"/>
<stop offset="1" stop-color="white" stop-opacity="0.65"/>
</linearGradient>
<linearGradient id="paint69_linear_62_11172" x1="145.5" y1="167.5" x2="-134" y2="-131" gradientUnits="userSpaceOnUse">
<stop stop-color="white" stop-opacity="0"/>
<stop offset="1" stop-color="white" stop-opacity="0.65"/>
</linearGradient>
<linearGradient id="paint70_linear_62_11172" x1="145.5" y1="167.5" x2="-134" y2="-131" gradientUnits="userSpaceOnUse">
<stop stop-color="white" stop-opacity="0"/>
<stop offset="1" stop-color="white" stop-opacity="0.65"/>
</linearGradient>
<linearGradient id="paint71_linear_62_11172" x1="145.5" y1="167.5" x2="-134" y2="-131" gradientUnits="userSpaceOnUse">
<stop stop-color="white" stop-opacity="0"/>
<stop offset="1" stop-color="white" stop-opacity="0.65"/>
</linearGradient>
<linearGradient id="paint72_linear_62_11172" x1="145.5" y1="167.5" x2="-134" y2="-131" gradientUnits="userSpaceOnUse">
<stop stop-color="white" stop-opacity="0"/>
<stop offset="1" stop-color="white" stop-opacity="0.65"/>
</linearGradient>
<linearGradient id="paint73_linear_62_11172" x1="145.5" y1="167.5" x2="-134" y2="-131" gradientUnits="userSpaceOnUse">
<stop stop-color="white" stop-opacity="0"/>
<stop offset="1" stop-color="white" stop-opacity="0.65"/>
</linearGradient>
<linearGradient id="paint74_linear_62_11172" x1="145.5" y1="167.5" x2="-134" y2="-131" gradientUnits="userSpaceOnUse">
<stop stop-color="white" stop-opacity="0"/>
<stop offset="1" stop-color="white" stop-opacity="0.65"/>
</linearGradient>
<linearGradient id="paint75_linear_62_11172" x1="145.5" y1="167.5" x2="-134" y2="-131" gradientUnits="userSpaceOnUse">
<stop stop-color="white" stop-opacity="0"/>
<stop offset="1" stop-color="white" stop-opacity="0.65"/>
</linearGradient>
<linearGradient id="paint76_linear_62_11172" x1="145.5" y1="167.5" x2="-134" y2="-131" gradientUnits="userSpaceOnUse">
<stop stop-color="white" stop-opacity="0"/>
<stop offset="1" stop-color="white" stop-opacity="0.65"/>
</linearGradient>
<linearGradient id="paint77_linear_62_11172" x1="145.5" y1="167.5" x2="-134" y2="-131" gradientUnits="userSpaceOnUse">
<stop stop-color="white" stop-opacity="0"/>
<stop offset="1" stop-color="white" stop-opacity="0.65"/>
</linearGradient>
<linearGradient id="paint78_linear_62_11172" x1="145.5" y1="167.5" x2="-134" y2="-131" gradientUnits="userSpaceOnUse">
<stop stop-color="white" stop-opacity="0"/>
<stop offset="1" stop-color="white" stop-opacity="0.65"/>
</linearGradient>
<linearGradient id="paint79_linear_62_11172" x1="145.5" y1="167.5" x2="-134" y2="-131" gradientUnits="userSpaceOnUse">
<stop stop-color="white" stop-opacity="0"/>
<stop offset="1" stop-color="white" stop-opacity="0.65"/>
</linearGradient>
<linearGradient id="paint80_linear_62_11172" x1="145.5" y1="167.5" x2="-134" y2="-131" gradientUnits="userSpaceOnUse">
<stop stop-color="white" stop-opacity="0"/>
<stop offset="1" stop-color="white" stop-opacity="0.65"/>
</linearGradient>
<linearGradient id="paint81_linear_62_11172" x1="145.5" y1="167.5" x2="-134" y2="-131" gradientUnits="userSpaceOnUse">
<stop stop-color="white" stop-opacity="0"/>
<stop offset="1" stop-color="white" stop-opacity="0.65"/>
</linearGradient>
<linearGradient id="paint82_linear_62_11172" x1="145.5" y1="167.5" x2="-134" y2="-131" gradientUnits="userSpaceOnUse">
<stop stop-color="white" stop-opacity="0"/>
<stop offset="1" stop-color="white" stop-opacity="0.65"/>
</linearGradient>
<linearGradient id="paint83_linear_62_11172" x1="145.5" y1="167.5" x2="-134" y2="-131" gradientUnits="userSpaceOnUse">
<stop stop-color="white" stop-opacity="0"/>
<stop offset="1" stop-color="white" stop-opacity="0.65"/>
</linearGradient>
<linearGradient id="paint84_linear_62_11172" x1="145.5" y1="167.5" x2="-134" y2="-131" gradientUnits="userSpaceOnUse">
<stop stop-color="white" stop-opacity="0"/>
<stop offset="1" stop-color="white" stop-opacity="0.65"/>
</linearGradient>
<linearGradient id="paint85_linear_62_11172" x1="145.5" y1="167.5" x2="-134" y2="-131" gradientUnits="userSpaceOnUse">
<stop stop-color="white" stop-opacity="0"/>
<stop offset="1" stop-color="white" stop-opacity="0.65"/>
</linearGradient>
<linearGradient id="paint86_linear_62_11172" x1="145.5" y1="167.5" x2="-134" y2="-131" gradientUnits="userSpaceOnUse">
<stop stop-color="white" stop-opacity="0"/>
<stop offset="1" stop-color="white" stop-opacity="0.65"/>
</linearGradient>
<linearGradient id="paint87_linear_62_11172" x1="145.5" y1="167.5" x2="-134" y2="-131" gradientUnits="userSpaceOnUse">
<stop stop-color="white" stop-opacity="0"/>
<stop offset="1" stop-color="white" stop-opacity="0.65"/>
</linearGradient>
<linearGradient id="paint88_linear_62_11172" x1="145.5" y1="167.5" x2="-134" y2="-131" gradientUnits="userSpaceOnUse">
<stop stop-color="white" stop-opacity="0"/>
<stop offset="1" stop-color="white" stop-opacity="0.65"/>
</linearGradient>
<linearGradient id="paint89_linear_62_11172" x1="145.5" y1="167.5" x2="-134" y2="-131" gradientUnits="userSpaceOnUse">
<stop stop-color="white" stop-opacity="0"/>
<stop offset="1" stop-color="white" stop-opacity="0.65"/>
</linearGradient>
<linearGradient id="paint90_linear_62_11172" x1="145.5" y1="167.5" x2="-134" y2="-131" gradientUnits="userSpaceOnUse">
<stop stop-color="white" stop-opacity="0"/>
<stop offset="1" stop-color="white" stop-opacity="0.65"/>
</linearGradient>
<linearGradient id="paint91_linear_62_11172" x1="145.5" y1="167.5" x2="-134" y2="-131" gradientUnits="userSpaceOnUse">
<stop stop-color="white" stop-opacity="0"/>
<stop offset="1" stop-color="white" stop-opacity="0.65"/>
</linearGradient>
<linearGradient id="paint92_linear_62_11172" x1="145.5" y1="167.5" x2="-134" y2="-131" gradientUnits="userSpaceOnUse">
<stop stop-color="white" stop-opacity="0"/>
<stop offset="1" stop-color="white" stop-opacity="0.65"/>
</linearGradient>
<linearGradient id="paint93_linear_62_11172" x1="145.5" y1="167.5" x2="-134" y2="-131" gradientUnits="userSpaceOnUse">
<stop stop-color="white" stop-opacity="0"/>
<stop offset="1" stop-color="white" stop-opacity="0.65"/>
</linearGradient>
<linearGradient id="paint94_linear_62_11172" x1="145.5" y1="167.5" x2="-134" y2="-131" gradientUnits="userSpaceOnUse">
<stop stop-color="white" stop-opacity="0"/>
<stop offset="1" stop-color="white" stop-opacity="0.65"/>
</linearGradient>
<linearGradient id="paint95_linear_62_11172" x1="145.5" y1="167.5" x2="-134" y2="-131" gradientUnits="userSpaceOnUse">
<stop stop-color="white" stop-opacity="0"/>
<stop offset="1" stop-color="white" stop-opacity="0.65"/>
</linearGradient>
<linearGradient id="paint96_linear_62_11172" x1="145.5" y1="167.5" x2="-134" y2="-131" gradientUnits="userSpaceOnUse">
<stop stop-color="white" stop-opacity="0"/>
<stop offset="1" stop-color="white" stop-opacity="0.65"/>
</linearGradient>
<linearGradient id="paint97_linear_62_11172" x1="145.5" y1="167.5" x2="-134" y2="-131" gradientUnits="userSpaceOnUse">
<stop stop-color="white" stop-opacity="0"/>
<stop offset="1" stop-color="white" stop-opacity="0.65"/>
</linearGradient>
<linearGradient id="paint98_linear_62_11172" x1="145.5" y1="167.5" x2="-134" y2="-131" gradientUnits="userSpaceOnUse">
<stop stop-color="white" stop-opacity="0"/>
<stop offset="1" stop-color="white" stop-opacity="0.65"/>
</linearGradient>
<linearGradient id="paint99_linear_62_11172" x1="145.5" y1="167.5" x2="-134" y2="-131" gradientUnits="userSpaceOnUse">
<stop stop-color="white" stop-opacity="0"/>
<stop offset="1" stop-color="white" stop-opacity="0.65"/>
</linearGradient>
<linearGradient id="paint100_linear_62_11172" x1="145.5" y1="167.5" x2="-134" y2="-131" gradientUnits="userSpaceOnUse">
<stop stop-color="white" stop-opacity="0"/>
<stop offset="1" stop-color="white" stop-opacity="0.65"/>
</linearGradient>
<linearGradient id="paint101_linear_62_11172" x1="145.5" y1="167.5" x2="-134" y2="-131" gradientUnits="userSpaceOnUse">
<stop stop-color="white" stop-opacity="0"/>
<stop offset="1" stop-color="white" stop-opacity="0.65"/>
</linearGradient>
<linearGradient id="paint102_linear_62_11172" x1="145.5" y1="167.5" x2="-134" y2="-131" gradientUnits="userSpaceOnUse">
<stop stop-color="white" stop-opacity="0"/>
<stop offset="1" stop-color="white" stop-opacity="0.65"/>
</linearGradient>
<linearGradient id="paint103_linear_62_11172" x1="145.5" y1="167.5" x2="-134" y2="-131" gradientUnits="userSpaceOnUse">
<stop stop-color="white" stop-opacity="0"/>
<stop offset="1" stop-color="white" stop-opacity="0.65"/>
</linearGradient>
<linearGradient id="paint104_linear_62_11172" x1="145.5" y1="167.5" x2="-134" y2="-131" gradientUnits="userSpaceOnUse">
<stop stop-color="white" stop-opacity="0"/>
<stop offset="1" stop-color="white" stop-opacity="0.65"/>
</linearGradient>
<linearGradient id="paint105_linear_62_11172" x1="145.5" y1="167.5" x2="-134" y2="-131" gradientUnits="userSpaceOnUse">
<stop stop-color="white" stop-opacity="0"/>
<stop offset="1" stop-color="white" stop-opacity="0.65"/>
</linearGradient>
<linearGradient id="paint106_linear_62_11172" x1="145.5" y1="167.5" x2="-134" y2="-131" gradientUnits="userSpaceOnUse">
<stop stop-color="white" stop-opacity="0"/>
<stop offset="1" stop-color="white" stop-opacity="0.65"/>
</linearGradient>
<linearGradient id="paint107_linear_62_11172" x1="145.5" y1="167.5" x2="-134" y2="-131" gradientUnits="userSpaceOnUse">
<stop stop-color="white" stop-opacity="0"/>
<stop offset="1" stop-color="white" stop-opacity="0.65"/>
</linearGradient>
<linearGradient id="paint108_linear_62_11172" x1="145.5" y1="167.5" x2="-134" y2="-131" gradientUnits="userSpaceOnUse">
<stop stop-color="white" stop-opacity="0"/>
<stop offset="1" stop-color="white" stop-opacity="0.65"/>
</linearGradient>
<linearGradient id="paint109_linear_62_11172" x1="145.5" y1="167.5" x2="-134" y2="-131" gradientUnits="userSpaceOnUse">
<stop stop-color="white" stop-opacity="0"/>
<stop offset="1" stop-color="white" stop-opacity="0.65"/>
</linearGradient>
<linearGradient id="paint110_linear_62_11172" x1="145.5" y1="167.5" x2="-134" y2="-131" gradientUnits="userSpaceOnUse">
<stop stop-color="white" stop-opacity="0"/>
<stop offset="1" stop-color="white" stop-opacity="0.65"/>
</linearGradient>
<linearGradient id="paint111_linear_62_11172" x1="145.5" y1="167.5" x2="-134" y2="-131" gradientUnits="userSpaceOnUse">
<stop stop-color="white" stop-opacity="0"/>
<stop offset="1" stop-color="white" stop-opacity="0.65"/>
</linearGradient>
<linearGradient id="paint112_linear_62_11172" x1="145.5" y1="167.5" x2="-134" y2="-131" gradientUnits="userSpaceOnUse">
<stop stop-color="white" stop-opacity="0"/>
<stop offset="1" stop-color="white" stop-opacity="0.65"/>
</linearGradient>
<linearGradient id="paint113_linear_62_11172" x1="145.5" y1="167.5" x2="-134" y2="-131" gradientUnits="userSpaceOnUse">
<stop stop-color="white" stop-opacity="0"/>
<stop offset="1" stop-color="white" stop-opacity="0.65"/>
</linearGradient>
<linearGradient id="paint114_linear_62_11172" x1="145.5" y1="167.5" x2="-134" y2="-131" gradientUnits="userSpaceOnUse">
<stop stop-color="white" stop-opacity="0"/>
<stop offset="1" stop-color="white" stop-opacity="0.65"/>
</linearGradient>
<linearGradient id="paint115_linear_62_11172" x1="145.5" y1="167.5" x2="-134" y2="-131" gradientUnits="userSpaceOnUse">
<stop stop-color="white" stop-opacity="0"/>
<stop offset="1" stop-color="white" stop-opacity="0.65"/>
</linearGradient>
<linearGradient id="paint116_linear_62_11172" x1="145.5" y1="167.5" x2="-134" y2="-131" gradientUnits="userSpaceOnUse">
<stop stop-color="white" stop-opacity="0"/>
<stop offset="1" stop-color="white" stop-opacity="0.65"/>
</linearGradient>
<linearGradient id="paint117_linear_62_11172" x1="145.5" y1="167.5" x2="-134" y2="-131" gradientUnits="userSpaceOnUse">
<stop stop-color="white" stop-opacity="0"/>
<stop offset="1" stop-color="white" stop-opacity="0.65"/>
</linearGradient>
<linearGradient id="paint118_linear_62_11172" x1="145.5" y1="167.5" x2="-134" y2="-131" gradientUnits="userSpaceOnUse">
<stop stop-color="white" stop-opacity="0"/>
<stop offset="1" stop-color="white" stop-opacity="0.65"/>
</linearGradient>
<linearGradient id="paint119_linear_62_11172" x1="145.5" y1="167.5" x2="-134" y2="-131" gradientUnits="userSpaceOnUse">
<stop stop-color="white" stop-opacity="0"/>
<stop offset="1" stop-color="white" stop-opacity="0.65"/>
</linearGradient>
</defs>
</svg>
